<?xml version="1.0" encoding="UTF-8" standalone="no"?>
<!-- Generator: Adobe Illustrator 18.1.1, SVG Export Plug-In . SVG Version: 6.00 Build 0)  -->

<svg
   xmlns:dc="http://purl.org/dc/elements/1.1/"
   xmlns:cc="http://creativecommons.org/ns#"
   xmlns:rdf="http://www.w3.org/1999/02/22-rdf-syntax-ns#"
   xmlns:svg="http://www.w3.org/2000/svg"
   xmlns="http://www.w3.org/2000/svg"
   xmlns:sodipodi="http://sodipodi.sourceforge.net/DTD/sodipodi-0.dtd"
   xmlns:inkscape="http://www.inkscape.org/namespaces/inkscape"
   version="1.1"
   id="Capa_1"
   x="0px"
   y="0px"
   viewBox="0 0 96 96"
   style="enable-background:new 0 0 96 96;"
   xml:space="preserve"
   inkscape:version="0.48.4 r9939"
   width="100%"
   height="100%"
   sodipodi:docname="gb.svg"><metadata
   id="metadata41"><rdf:RDF><cc:Work
       rdf:about=""><dc:format>image/svg+xml</dc:format><dc:type
         rdf:resource="http://purl.org/dc/dcmitype/StillImage" /></cc:Work></rdf:RDF></metadata><defs
   id="defs39">
	
</defs><sodipodi:namedview
   pagecolor="#ffffff"
   bordercolor="#666666"
   borderopacity="1"
   objecttolerance="10"
   gridtolerance="10"
   guidetolerance="10"
   inkscape:pageopacity="0"
   inkscape:pageshadow="2"
   inkscape:window-width="1920"
   inkscape:window-height="1137"
   id="namedview37"
   showgrid="false"
   inkscape:zoom="27.812867"
   inkscape:cx="62.002667"
   inkscape:cy="50.698784"
   inkscape:window-x="1912"
   inkscape:window-y="-8"
   inkscape:window-maximized="1"
   inkscape:current-layer="Capa_1" />
<path
   inkscape:connector-curvature="0"
   id="path5"
   d="m 48.07,47.746 c -0.022,0 -0.047,-0.001 -0.07,-0.002 -0.024,10e-4 -0.049,0.002 -0.071,0.002 -5.957,0 -11.206,-1.508 -14.308,1.34 -1.859,1.709 -2.642,3.768 -2.642,5.985 0,9.261 7.42,10.398 16.949,10.398 h 0.142 c 9.529,0 16.949,-1.138 16.949,-10.398 0,-2.218 -0.783,-4.276 -2.642,-5.985 -3.102,-2.848 -8.35,-1.34 -14.307,-1.34 z m -8.102,12.655 c -1.813,0 -3.283,-2.036 -3.283,-4.547 0,-2.511 1.47,-4.546 3.283,-4.546 1.813,0 3.285,2.035 3.285,4.546 0,2.511 -1.472,4.547 -3.285,4.547 z m 16.063,0 c -1.814,0 -3.285,-2.036 -3.285,-4.547 0,-2.511 1.471,-4.546 3.285,-4.546 1.812,0 3.283,2.035 3.283,4.546 0,2.511 -1.47,4.547 -3.283,4.547 z M 48,0 C 21.489,0 0,21.49 0,48 0,74.51 21.489,96 48,96 74.509,96 96,74.51 96,48 96,21.49 74.509,0 48,0 z m 4.378,67.701 c -0.86,0 -2.57,0.002 -4.378,0.004 -1.809,-0.002 -3.52,-0.004 -4.379,-0.004 -3.803,0 -18.863,-0.291 -18.863,-18.445 0,-4.177 1.432,-7.233 3.775,-9.778 -0.374,-0.923 -0.393,-6.165 1.602,-11.183 0,0 4.576,0.502 11.5,5.253 1.451,-0.401 3.908,-0.601 6.365,-0.601 2.455,0 4.912,0.199 6.365,0.601 6.923,-4.751 11.498,-5.253 11.498,-5.253 1.995,5.018 1.977,10.26 1.603,11.183 2.344,2.545 3.776,5.602 3.776,9.778 0,18.154 -15.061,18.445 -18.864,18.445 z"
   style="fill:#999999" />
<g
   id="g7">
</g>
<g
   id="g9">
</g>
<g
   id="g11">
</g>
<g
   id="g13">
</g>
<g
   id="g15">
</g>
<g
   id="g17">
</g>
<g
   id="g19">
</g>
<g
   id="g21">
</g>
<g
   id="g23">
</g>
<g
   id="g25">
</g>
<g
   id="g27">
</g>
<g
   id="g29">
</g>
<g
   id="g31">
</g>
<g
   id="g33">
</g>
<g
   id="g35">
</g>
<path
   style="fill:#e6e6e6;fill-opacity:0.53439152;stroke:none"
   d="m 42.623147,67.662133 c -4.868039,-0.132906 -8.755982,-1.346179 -11.792973,-3.680119 -0.823673,-0.632996 -1.811896,-1.61199 -2.446519,-2.423673 -2.449622,-3.13306 -3.668725,-7.395969 -3.583802,-12.531681 0.02006,-1.213223 0.06078,-1.679637 0.227934,-2.610852 0.44245,-2.464905 1.561179,-4.734163 3.271948,-6.636902 l 0.261568,-0.290919 -0.04807,-0.159715 c -0.105714,-0.351261 -0.144001,-0.844017 -0.143527,-1.847177 0.0013,-2.739134 0.565336,-5.848206 1.552421,-8.557191 0.108083,-0.296625 0.210417,-0.554142 0.227408,-0.57226 0.04062,-0.04331 0.408535,0.02249 1.129939,0.202075 2.894856,0.72066 6.205156,2.285393 9.706354,4.58806 l 0.6458,0.42473 0.271042,-0.06514 c 2.406727,-0.578451 7.245952,-0.70585 10.607984,-0.279269 0.515801,0.06544 1.484552,0.241627 1.749234,0.318124 0.106183,0.03069 0.154746,0.0052 0.773024,-0.406474 3.363476,-2.239281 6.788688,-3.859174 9.684323,-4.580027 0.721004,-0.17949 1.089445,-0.245408 1.129477,-0.202075 0.08117,0.08787 0.563326,1.504983 0.806361,2.369989 0.83241,2.962684 1.217523,6.754518 0.862072,8.488005 l -0.05954,0.290361 0.314516,0.356822 c 1.589027,1.802759 2.639541,3.873704 3.126506,6.163487 0.221916,1.043492 0.276725,1.611441 0.298384,3.092094 0.02588,1.769385 -0.06007,3.016081 -0.314801,4.566232 -0.460563,2.802686 -1.349163,5.127686 -2.737121,7.161586 -0.396076,0.58041 -0.797117,1.072656 -1.362553,1.67243 -2.362363,2.505825 -5.596399,4.113685 -9.667698,4.806473 -1.206562,0.205315 -2.266397,0.298851 -3.91905,0.345886 -1.385732,0.03943 -9.097691,0.03734 -10.570647,-0.0029 l 0,0 z m 9.815601,-2.294165 c 3.415715,-0.23661 5.580315,-0.67449 7.475684,-1.512263 3.469477,-1.533548 5.186679,-4.531521 5.098205,-8.900684 -0.01094,-0.540407 -0.03919,-0.996213 -0.07558,-1.219587 -0.256957,-1.577364 -0.889272,-2.88204 -1.987889,-4.101691 -1.392978,-1.546438 -3.038583,-2.193593 -5.795964,-2.279337 -0.965605,-0.03003 -2.152502,0.0039 -3.581886,0.102384 -3.126765,0.215435 -3.98337,0.254563 -5.572961,0.254563 -1.606688,0 -2.246698,-0.0293 -5.554983,-0.254294 -3.865118,-0.262865 -5.897752,-0.07658 -7.453154,0.683074 -1.58204,0.772661 -2.99058,2.4473 -3.599986,4.28009 -0.306692,0.922379 -0.416598,1.648999 -0.416,2.750306 0.002,3.660127 1.233438,6.300723 3.684974,7.901674 2.094992,1.368115 4.836959,2.057613 9.186395,2.310025 1.353587,0.07855 1.432525,0.07972 4.638141,0.06895 2.474496,-0.0083 3.048202,-0.02039 3.955004,-0.08321 l 0,0 z"
   id="path3002"
   inkscape:connector-curvature="0" /><path
   style="fill:#e6e6e6;fill-opacity:0.53439152000000001;stroke:none"
   d="m 39.315326,60.283883 c -0.609568,-0.186662 -1.15167,-0.581464 -1.590844,-1.158579 -1.00214,-1.316902 -1.293808,-3.387167 -0.724296,-5.141056 0.146095,-0.449918 0.455221,-1.048191 0.724296,-1.40178 1.166279,-1.532596 2.948459,-1.662989 4.225588,-0.309165 0.798462,0.846411 1.284305,2.20092 1.284305,3.580583 0,1.112185 -0.340011,2.287123 -0.900863,3.113015 -0.380363,0.56011 -1.000674,1.064645 -1.558943,1.26798 -0.25115,0.09147 -0.351891,0.107635 -0.740151,0.118732 -0.389815,0.01114 -0.485204,0.0019 -0.719092,-0.06973 l 0,0 z"
   id="path3004"
   inkscape:connector-curvature="0" /><path
   style="fill:#e6e6e6;fill-opacity:0.53439152;stroke:none"
   d="m 39.338139,60.274211 c -0.07644,-0.02802 -0.153293,-0.04211 -0.170784,-0.0313 -0.01749,0.01081 -0.0318,0.0058 -0.0318,-0.0112 0,-0.01697 -0.05557,-0.05095 -0.123491,-0.07551 -0.187519,-0.06781 -0.652353,-0.382847 -0.873779,-0.5922 -0.227131,-0.214746 -0.56795,-0.655217 -0.712543,-0.920882 -0.05464,-0.100391 -0.113908,-0.182529 -0.131707,-0.182529 -0.0178,0 -0.02236,-0.01618 -0.01014,-0.03595 0.01222,-0.01977 0.0078,-0.03596 -0.0099,-0.03596 -0.01765,0 -0.03208,-0.0203 -0.03208,-0.04512 0,-0.02482 -0.04153,-0.150208 -0.09229,-0.278648 -0.05076,-0.12844 -0.121984,-0.330604 -0.158279,-0.449254 -0.0363,-0.118651 -0.07846,-0.221155 -0.0937,-0.227788 -0.01524,-0.0066 -0.01993,-0.02465 -0.01042,-0.04003 0.0095,-0.01539 -0.0059,-0.139397 -0.03433,-0.275577 -0.161649,-0.775377 -0.167774,-1.675044 -0.01622,-2.381736 0.02066,-0.09634 0.04265,-0.213772 0.04886,-0.260951 0.0062,-0.04718 0.02067,-0.11005 0.03213,-0.139712 0.01146,-0.02966 0.06427,-0.183369 0.117346,-0.341569 0.208638,-0.621864 0.627753,-1.321734 1.035857,-1.729755 0.268396,-0.268341 0.727271,-0.591411 0.939498,-0.661453 0.06883,-0.02272 0.12515,-0.05718 0.12515,-0.07659 0,-0.01941 0.01344,-0.02698 0.02986,-0.01684 0.01642,0.01015 0.117544,-0.0064 0.224716,-0.03687 0.182741,-0.05188 1.003836,-0.092 1.003836,-0.04905 0,0.01031 0.08408,0.03871 0.186845,0.06312 0.956307,0.227164 1.86105,1.198885 2.305733,2.476426 0.312671,0.898281 0.407424,2.05395 0.241842,2.949664 -0.01994,0.107869 -0.03404,0.207199 -0.03133,0.220735 0.0027,0.01354 -0.0044,0.04888 -0.01581,0.07854 -0.0114,0.02966 -0.078,0.239997 -0.147985,0.46741 -0.06999,0.227413 -0.199511,0.561687 -0.287826,0.742831 -0.08831,0.181144 -0.151029,0.338895 -0.139367,0.350557 0.01166,0.01166 0.0046,0.0212 -0.01565,0.0212 -0.02027,0 -0.09843,0.09303 -0.173682,0.206739 -0.395515,0.597608 -1.1436,1.16838 -1.732322,1.321723 -0.269751,0.07026 -1.052105,0.0687 -1.246269,-0.0025 l 0,0 z"
   id="path3006"
   inkscape:connector-curvature="0" /><path
   style="fill:#e6e6e6;fill-opacity:0.53439152000000001;stroke:none"
   d="m 55.584774,60.341751 c -0.928903,-0.207898 -1.716962,-0.888833 -2.239519,-1.93509 -0.769042,-1.539767 -0.769042,-3.565783 0,-5.10555 0.996067,-1.994314 2.929339,-2.556269 4.405036,-1.280436 1.255124,1.085134 1.828539,3.211652 1.392346,5.163531 -0.428037,1.915375 -1.686155,3.194475 -3.125685,3.177809 -0.198148,-0.0023 -0.392628,-0.01141 -0.432178,-0.02026 z"
   id="path3008"
   inkscape:connector-curvature="0" /><path
   style="fill:#e6e6e6;fill-opacity:0.53439152;stroke:none"
   d="m 39.520939,60.292413 c -0.557248,-0.06483 -1.280439,-0.548887 -1.769378,-1.184301 -0.460027,-0.597839 -0.785403,-1.383827 -0.919784,-2.22186 -0.108608,-0.6773 -0.107268,-1.465027 0.0036,-2.111003 0.04412,-0.257076 0.08219,-0.491679 0.0846,-0.521342 0.0024,-0.02966 0.013,-0.06202 0.02354,-0.07191 0.01054,-0.0099 0.06558,-0.139324 0.122317,-0.287637 0.23789,-0.621835 0.569565,-1.17811 0.945095,-1.585084 0.244446,-0.264915 0.67207,-0.59044 0.936847,-0.713166 0.103286,-0.04787 0.187793,-0.101413 0.187793,-0.118975 0,-0.01756 0.01214,-0.0249 0.02697,-0.01629 0.01483,0.0086 0.148313,-0.006 0.296625,-0.03241 0.610845,-0.108823 1.091703,-0.04635 1.594374,0.207141 0.796413,0.40162 1.487197,1.291777 1.85504,2.390439 0.178724,0.533803 0.264157,1.098727 0.268271,1.773939 0.0041,0.679528 -0.02011,1.149787 -0.05931,1.150237 -0.01483,1.8e-4 -0.02697,0.03818 -0.02697,0.08447 0,0.109723 -0.275583,0.927521 -0.444164,1.318068 -0.07256,0.168088 -0.131737,0.317749 -0.131515,0.33258 2.16e-4,0.01483 -0.02791,0.05661 -0.06252,0.09285 -0.03461,0.03624 -0.172161,0.205005 -0.305677,0.375042 -0.299407,0.381304 -0.730206,0.733135 -1.159472,0.946932 -0.272927,0.135932 -0.374255,0.166462 -0.647183,0.194993 -0.364191,0.03807 -0.471603,0.03771 -0.819092,-0.0027 l 0,1e-6 z"
   id="path3010"
   inkscape:connector-curvature="0" /><path
   style="fill:#e6e6e6;fill-opacity:0.53439152;stroke:none"
   d="m 55.335676,60.250594 c -0.844518,-0.292312 -1.570095,-0.994391 -2.023528,-1.957997 -0.07284,-0.15479 -0.141399,-0.289526 -0.152359,-0.299413 -0.01096,-0.0099 -0.02086,-0.03416 -0.02201,-0.05393 -0.0049,-0.08417 -0.09837,-0.377523 -0.120323,-0.377523 -0.01319,0 -0.02511,-0.02831 -0.02649,-0.06292 -0.0014,-0.03461 -0.03993,-0.224716 -0.08566,-0.422466 -0.0746,-0.322569 -0.08315,-0.448291 -0.08315,-1.222456 0,-0.774165 0.0086,-0.899887 0.08315,-1.222456 0.04573,-0.19775 0.08428,-0.38786 0.08566,-0.422466 0.0014,-0.03461 0.0133,-0.06292 0.02649,-0.06292 0.02195,0 0.115449,-0.293355 0.120323,-0.377523 0.0011,-0.01978 0.01105,-0.04404 0.02201,-0.05393 0.01096,-0.0099 0.07952,-0.144623 0.152359,-0.299413 0.435879,-0.926302 1.16259,-1.649392 1.923645,-1.914061 0.471723,-0.16405 1.001837,-0.183846 1.441726,-0.05384 0.06709,0.01983 0.135848,0.02747 0.152807,0.01699 0.01696,-0.01048 0.03084,-0.0041 0.03084,0.01413 0,0.01826 0.06876,0.05951 0.152807,0.09167 0.524504,0.200712 1.212684,0.861953 1.558684,1.497669 0.05372,0.0987 0.108578,0.179446 0.121914,0.179446 0.01334,0 0.02425,0.02374 0.02425,0.05275 0,0.07876 0.125842,0.342748 0.163386,0.342748 0.01794,0 0.02427,0.0135 0.01407,0.03 -0.0102,0.0165 0.02244,0.149982 0.07253,0.296625 0.110333,0.323 0.262373,1.020012 0.281678,1.291329 0.03062,0.430373 0.01448,1.271015 -0.02692,1.402229 -0.02041,0.06469 -0.149255,0.75774 -0.150394,0.808978 -4.39e-4,0.01977 -0.0093,0.04404 -0.01976,0.05393 -0.02249,0.02132 -0.158091,0.433473 -0.159701,0.485387 -6.15e-4,0.01977 -0.0103,0.04404 -0.02154,0.05393 -0.01123,0.0099 -0.07149,0.12811 -0.133898,0.262718 -0.176312,0.38025 -0.489712,0.835077 -0.795243,1.154109 -0.153285,0.160059 -0.293574,0.297066 -0.311752,0.304461 -0.01818,0.0074 -0.09777,0.05777 -0.176871,0.111932 -0.422296,0.289188 -0.778204,0.400567 -1.367791,0.428043 -0.446322,0.0208 -0.482521,0.01715 -0.750945,-0.07576 l 0,0 z"
   id="path3012"
   inkscape:connector-curvature="0" /><path
   style="fill:#e6e6e6;fill-opacity:0.53439152;stroke:none"
   d="m 42.80292,67.658174 c -0.148312,-0.01362 -0.415275,-0.02545 -0.59325,-0.02629 -0.177975,-8.27e-4 -0.631003,-0.02624 -1.006729,-0.05644 -0.375725,-0.0302 -0.702316,-0.0476 -0.725757,-0.03865 -0.02344,0.0089 -0.04771,0.002 -0.05393,-0.01532 -0.0062,-0.01737 -0.143913,-0.03923 -0.30598,-0.04858 -0.162069,-0.0093 -0.307685,-0.02456 -0.323592,-0.03382 -0.01591,-0.0093 -0.125999,-0.02777 -0.244649,-0.04115 -0.11865,-0.01338 -0.49887,-0.07438 -0.844933,-0.135541 -0.346063,-0.06117 -0.661564,-0.114875 -0.701114,-0.119355 -0.03955,-0.0045 -0.09618,-0.01671 -0.125841,-0.02719 -0.02966,-0.01048 -0.248087,-0.06313 -0.485387,-0.117007 -0.237301,-0.05388 -0.640835,-0.159685 -0.896745,-0.235133 -0.255909,-0.07545 -0.476996,-0.129939 -0.491304,-0.121095 -0.01431,0.0088 -0.03144,0.0022 -0.03807,-0.01473 -0.01246,-0.03184 -0.804148,-0.305183 -0.883958,-0.305204 -0.02472,-7e-6 -0.04494,-0.01024 -0.04494,-0.02275 0,-0.0125 -0.06067,-0.04409 -0.13483,-0.07019 -0.242414,-0.08532 -1.06347,-0.440203 -1.344042,-0.580932 -0.150917,-0.0757 -0.284398,-0.127628 -0.296626,-0.1154 -0.01223,0.01223 -0.02223,0.0024 -0.02223,-0.02184 0,-0.02424 -0.01618,-0.03407 -0.03596,-0.02185 -0.01977,0.01222 -0.03596,0.0085 -0.03596,-0.0083 0,-0.0434 -0.487427,-0.301277 -0.515806,-0.272898 -0.01293,0.01293 -0.02351,0.0065 -0.02351,-0.01434 0,-0.02082 -0.117302,-0.107181 -0.260671,-0.191922 -0.337802,-0.199659 -1.067512,-0.685805 -1.325745,-0.883228 -0.111191,-0.08501 -0.212313,-0.14441 -0.224717,-0.132007 -0.0124,0.0124 -0.02255,0.0051 -0.02255,-0.01617 0,-0.0213 -0.129437,-0.145806 -0.287637,-0.276688 -0.1582,-0.130882 -0.287636,-0.231663 -0.287636,-0.223958 0,0.04347 -1.250176,-1.244318 -1.538661,-1.58495 -0.188411,-0.222469 -0.356138,-0.404489 -0.372726,-0.404489 -0.01659,0 -0.02612,-0.0143 -0.02117,-0.03178 0.01188,-0.042 -0.328786,-0.507537 -0.371403,-0.507537 -0.0182,0 -0.02904,-0.0127 -0.0241,-0.02822 0.01141,-0.03581 -0.296229,-0.511099 -0.33081,-0.511099 -0.01416,0 -0.02599,-0.02023 -0.02629,-0.04494 -3.05e-4,-0.02472 -0.09355,-0.197757 -0.207225,-0.38453 -0.11367,-0.186774 -0.328764,-0.583173 -0.477987,-0.880888 -0.149222,-0.297715 -0.289226,-0.553186 -0.311119,-0.567715 -0.02189,-0.01453 -0.02746,-0.02666 -0.01236,-0.02697 0.02971,-5.97e-4 -0.06771,-0.255306 -0.109741,-0.286927 -0.01406,-0.01058 -0.02557,-0.03542 -0.02557,-0.05519 0,-0.0447 -0.239441,-0.640518 -0.267307,-0.66516 -0.01118,-0.0099 -0.02083,-0.03416 -0.02144,-0.05393 -0.0024,-0.07833 -0.139597,-0.449433 -0.166118,-0.449433 -0.01554,0 -0.01895,-0.02427 -0.0076,-0.05393 0.01138,-0.02966 0.0033,-0.05393 -0.01798,-0.05393 -0.02127,0 -0.02936,-0.02427 -0.01798,-0.05393 0.01138,-0.02966 0.0033,-0.05393 -0.01798,-0.05393 -0.02127,0 -0.02936,-0.02427 -0.01798,-0.05393 0.01138,-0.02966 0.0033,-0.05393 -0.01798,-0.05393 -0.02127,0 -0.02936,-0.02427 -0.01798,-0.05393 0.01138,-0.02966 0.0018,-0.05393 -0.02123,-0.05393 -0.02306,0 -0.03362,-0.01343 -0.02348,-0.02984 0.02118,-0.03427 -0.11379,-0.507673 -0.161573,-0.566722 -0.01747,-0.02159 -0.02455,-0.04648 -0.01573,-0.0553 0.0088,-0.0088 -0.01587,-0.136769 -0.05487,-0.284328 -0.123151,-0.465934 -0.322899,-1.375801 -0.34259,-1.560524 -0.01042,-0.0977 -0.02853,-0.193159 -0.04025,-0.212123 -0.01172,-0.01896 -0.02585,-0.08464 -0.03139,-0.145948 -0.0085,-0.09417 -0.104245,-0.824958 -0.174733,-1.333924 -0.02345,-0.169324 -0.01656,-0.08718 -0.07688,-0.916842 -0.04447,-0.611695 -0.06308,-2.904807 -0.02874,-3.541527 0.03509,-0.650662 0.266495,-1.971953 0.465692,-2.659052 0.04942,-0.170478 0.0811,-0.324137 0.07039,-0.341464 -0.01071,-0.01733 -0.0065,-0.03693 0.0092,-0.04356 0.04172,-0.01752 0.333241,-0.860684 0.310371,-0.897688 -0.01061,-0.01717 -0.0044,-0.03121 0.0139,-0.03121 0.01826,0 0.06135,-0.07685 0.09577,-0.170784 0.03442,-0.09393 0.221502,-0.494376 0.415743,-0.889876 0.194241,-0.3955 0.354345,-0.731226 0.355785,-0.746058 0.0014,-0.01483 0.03557,-0.05992 0.07584,-0.100186 0.04027,-0.04027 0.06359,-0.08881 0.05181,-0.107864 -0.01177,-0.01905 -0.0061,-0.03464 0.01253,-0.03464 0.04205,0 0.16206,-0.178901 0.16206,-0.241585 0,-0.02533 0.01133,-0.04605 0.02519,-0.04605 0.03489,0 0.222069,-0.287376 0.188057,-0.28873 -0.01511,-6e-4 0.0012,-0.01778 0.0362,-0.03816 0.03502,-0.02039 0.05429,-0.05226 0.04282,-0.07082 -0.01147,-0.01856 -0.0056,-0.03375 0.01303,-0.03375 0.01864,0 0.135942,-0.141571 0.26068,-0.314602 0.124737,-0.173032 0.397632,-0.514683 0.606432,-0.759226 0.2088,-0.244543 0.407237,-0.48036 0.440972,-0.524039 0.05801,-0.0751 0.05733,-0.09878 -0.0125,-0.436264 -0.0594,-0.287081 -0.07842,-0.555437 -0.09729,-1.372605 -0.0129,-0.558666 -0.01377,-1.015739 -0.0019,-1.015717 0.01184,2.2e-5 0.03436,-0.254788 0.05004,-0.566245 0.03096,-0.614845 0.04607,-0.829284 0.07794,-1.105603 0.0114,-0.09887 0.02785,-0.244491 0.03655,-0.323592 0.0087,-0.0791 0.02223,-0.200446 0.03007,-0.269659 0.03496,-0.308558 0.241466,-1.475657 0.362617,-2.049411 0.07307,-0.346063 0.136341,-0.653475 0.140597,-0.683137 0.0043,-0.02966 0.01748,-0.0782 0.02939,-0.107864 0.02947,-0.0734 0.211325,-0.795661 0.217269,-0.86291 0.0026,-0.02966 0.01733,-0.06324 0.03269,-0.07462 0.01536,-0.01138 0.03154,-0.07202 0.03595,-0.134758 0.0044,-0.06274 0.01711,-0.114101 0.0282,-0.114141 0.01109,-3.9e-5 0.04167,-0.08501 0.06794,-0.188833 0.02628,-0.103819 0.151976,-0.488083 0.279331,-0.853921 0.127355,-0.365838 0.233728,-0.693474 0.236385,-0.72808 0.0027,-0.03461 0.01629,-0.06292 0.03029,-0.06292 0.014,0 0.04415,-0.05663 0.06699,-0.125841 0.03636,-0.110161 0.05638,-0.125841 0.160729,-0.125841 0.06556,0 0.335312,0.04926 0.599451,0.109459 0.264139,0.0602 0.512612,0.112786 0.552162,0.116852 0.03955,0.0041 0.08,0.01666 0.08989,0.02798 0.03408,0.03902 0.468062,0.145051 0.503655,0.123053 0.01961,-0.01212 0.03566,-0.0065 0.03566,0.01245 0,0.02996 0.313063,0.12907 0.413478,0.130896 0.01978,3.59e-4 0.04404,0.01014 0.05393,0.02173 0.03307,0.03877 0.259536,0.104155 0.291767,0.08423 0.0175,-0.01082 0.03182,-8.03e-4 0.03182,0.02225 0,0.02306 0.02427,0.03261 0.05393,0.02123 0.02966,-0.01138 0.05393,-0.008 0.05393,0.0076 0,0.01554 0.08882,0.05626 0.19737,0.09047 0.108553,0.03422 0.418593,0.149761 0.688976,0.256761 0.270384,0.107 0.505159,0.18617 0.521722,0.175934 0.01656,-0.01024 0.03011,-0.0047 0.03011,0.01236 0,0.03353 0.323396,0.159821 0.369846,0.144433 0.01555,-0.0052 0.03982,0.0084 0.05393,0.03018 0.02554,0.03937 0.409557,0.218678 0.509636,0.237967 0.02889,0.0056 0.06934,0.02252 0.08989,0.03766 0.02055,0.01514 0.474207,0.243502 1.008133,0.507463 1.043245,0.515757 1.763443,0.902876 2.534798,1.362496 0.266963,0.159072 0.505611,0.28934 0.53033,0.289484 0.02472,1.43e-4 0.04494,0.01177 0.04494,0.02583 0,0.03396 0.370347,0.257521 0.402942,0.243239 0.01398,-0.0061 0.04634,0.01532 0.07191,0.04765 0.03883,0.0491 0.839083,0.577243 1.469781,0.970004 l 0.16488,0.102677 0.391548,-0.08847 c 0.215351,-0.04866 0.569914,-0.115043 0.787916,-0.147518 0.218003,-0.03248 0.420638,-0.06779 0.450301,-0.07848 0.02966,-0.01069 0.06885,-0.01594 0.08709,-0.01166 0.01824,0.0043 0.236664,-0.01694 0.485387,-0.04714 1.217746,-0.14788 2.288804,-0.200033 4.155545,-0.202346 1.430419,-0.0018 2.156614,0.01419 2.480867,0.05454 0.0791,0.0098 0.326808,0.02584 0.550463,0.03555 0.223656,0.0097 0.418746,0.02513 0.433534,0.03427 0.01479,0.0091 0.172299,0.02491 0.350025,0.03505 0.177725,0.01014 0.346676,0.02668 0.375445,0.03676 0.02877,0.01008 0.157474,0.02717 0.286012,0.03796 0.233407,0.0196 1.050327,0.157402 1.37752,0.232362 0.299608,0.06864 0.519406,0.0814 0.607142,0.03526 0.171747,-0.09033 1.666298,-1.050519 1.700682,-1.092616 0.01978,-0.02421 0.04405,-0.04273 0.05393,-0.04115 0.03891,0.0062 1.042683,-0.599536 1.042683,-0.629227 0,-0.01742 0.01214,-0.02975 0.02697,-0.02741 0.06394,0.0101 0.108084,-0.0087 0.181982,-0.07757 0.04328,-0.04032 0.07869,-0.06586 0.07869,-0.05675 0,0.02803 0.987041,-0.522239 1.015166,-0.565953 0.01453,-0.02258 0.02666,-0.0294 0.02697,-0.01516 5.54e-4,0.02608 1.584991,-0.751156 1.618507,-0.793946 0.0099,-0.01262 0.04225,-0.02756 0.07191,-0.03319 0.107211,-0.02034 0.647183,-0.271537 0.647183,-0.301067 0,-0.01665 0.01213,-0.02835 0.02697,-0.02601 0.07242,0.01144 0.152379,-0.0086 0.196038,-0.0492 0.0266,-0.02472 0.07225,-0.0498 0.101443,-0.05574 0.02919,-0.0059 0.336218,-0.121319 0.682281,-0.2564 0.346063,-0.135081 0.758642,-0.291244 0.916842,-0.347029 0.1582,-0.05579 0.292728,-0.113427 0.298948,-0.128092 0.0062,-0.01467 0.03453,-0.01775 0.06292,-0.0069 0.02839,0.01089 0.05162,0.0059 0.05163,-0.01101 1.4e-5,-0.01695 0.04258,-0.03328 0.09458,-0.03629 0.05201,-0.003 0.104581,-0.01919 0.116827,-0.03595 0.01225,-0.01676 0.04654,-0.03215 0.0762,-0.03419 0.113347,-0.0078 0.917428,-0.243348 0.928901,-0.272117 0.0066,-0.01663 0.02686,-0.02109 0.04494,-0.0099 0.01808,0.01118 0.05243,0.0082 0.07631,-0.0065 0.02388,-0.01476 0.07646,-0.03056 0.116852,-0.03511 0.04039,-0.0045 0.257625,-0.05006 0.482751,-0.101126 0.567562,-0.128755 0.621734,-0.12553 0.705228,0.04197 0.03697,0.07416 0.06919,0.142919 0.07161,0.152807 0.0024,0.0099 0.01691,0.07056 0.03219,0.134829 0.01529,0.06427 0.04269,0.116853 0.06089,0.116853 0.0182,0 0.02946,0.01214 0.02502,0.02697 -0.01563,0.05218 0.08973,0.368534 0.122735,0.368534 0.01837,0 0.02464,0.01418 0.01393,0.0315 -0.01071,0.01733 0.0212,0.150809 0.07091,0.296625 0.04971,0.145817 0.140524,0.435006 0.201816,0.642644 0.06129,0.207638 0.120416,0.392971 0.131393,0.411852 0.01097,0.01888 0.02526,0.08278 0.03174,0.141994 0.0065,0.05922 0.0237,0.116576 0.03827,0.127467 0.01457,0.01089 0.0265,0.04407 0.02652,0.07373 0,0.09629 0.214246,0.916478 0.242575,0.928902 0.01513,0.0066 0.01954,0.02494 0.0098,0.04069 -0.02026,0.03278 0.09068,0.621095 0.122263,0.648362 0.01146,0.0099 0.02234,0.05843 0.02419,0.107864 0.0019,0.04944 0.05576,0.397298 0.11979,0.773024 0.115392,0.67708 0.278533,1.902444 0.303967,2.283116 0.0073,0.108762 0.02455,0.359545 0.03841,0.557296 0.02979,0.425092 0.02964,1.920517 -3.59e-4,2.229184 -0.03319,0.343077 -0.04722,0.467409 -0.05273,0.467409 -0.0028,0 -0.02592,0.09704 -0.05133,0.215647 -0.04528,0.211376 -0.04433,0.217849 0.04796,0.326835 0.504863,0.596224 0.812246,0.973604 0.971173,1.192327 0.104174,0.143369 0.206987,0.260671 0.228469,0.260671 0.02148,0 0.02949,0.0096 0.01778,0.02128 -0.01171,0.0117 0.05745,0.138481 0.153677,0.281723 0.09623,0.143242 0.255666,0.396583 0.354307,0.562979 0.09864,0.166396 0.204765,0.330853 0.23583,0.365459 0.03107,0.03461 0.04908,0.06292 0.04003,0.06292 -0.0091,0 0.08609,0.20629 0.211424,0.458421 0.232054,0.466807 0.392782,0.826227 0.506467,1.13257 0.03486,0.09393 0.0739,0.170784 0.08675,0.170784 0.01285,0 0.02485,0.02831 0.02667,0.06292 0.0018,0.03461 0.07583,0.289434 0.164474,0.566284 0.08864,0.27685 0.205279,0.689429 0.25919,0.916842 0.05391,0.227413 0.107277,0.437747 0.118596,0.46741 0.01132,0.02966 0.01721,0.06848 0.01308,0.08626 -0.0041,0.01778 0.0035,0.05823 0.0169,0.08989 0.01341,0.03166 0.02798,0.08992 0.03238,0.129466 0.0044,0.03955 0.03372,0.257974 0.06516,0.485386 0.119689,0.865507 0.129652,1.074344 0.127808,2.678617 -0.0017,1.451455 -0.0417,2.230431 -0.157057,3.056139 -0.03039,0.217525 -0.0614,0.468309 -0.06891,0.557296 -0.0075,0.08899 -0.02128,0.186065 -0.03061,0.215728 -0.0093,0.02966 -0.06093,0.304715 -0.114662,0.611228 -0.05374,0.306512 -0.136585,0.724651 -0.184106,0.929195 -0.04752,0.204545 -0.07734,0.386565 -0.06626,0.404489 0.01108,0.01792 0.0048,0.03259 -0.01393,0.03259 -0.01874,0 -0.04524,0.06067 -0.05889,0.134829 -0.01365,0.07416 -0.07196,0.294307 -0.129591,0.489224 -0.05763,0.194917 -0.0967,0.367465 -0.08683,0.383441 0.0099,0.01598 0.0057,0.03447 -0.0092,0.04111 -0.01495,0.0066 -0.106767,0.246664 -0.204031,0.533401 -0.09726,0.286738 -0.214444,0.608025 -0.260405,0.713971 -0.04596,0.105946 -0.07463,0.207068 -0.06373,0.224716 0.0109,0.01765 0.0057,0.03209 -0.01163,0.03209 -0.03421,0 -0.200494,0.377859 -0.200494,0.455596 0,0.02627 -0.01069,0.04777 -0.02375,0.04777 -0.01307,0 -0.102471,0.165841 -0.198685,0.368535 -0.09621,0.202694 -0.27968,0.554592 -0.407704,0.781996 -0.128023,0.227405 -0.23277,0.433694 -0.23277,0.458421 0,0.02473 -0.01144,0.04496 -0.02542,0.04496 -0.01398,0 -0.152793,0.1982 -0.308462,0.440444 -0.155669,0.242244 -0.277709,0.440443 -0.271201,0.440443 0.0065,0 -0.03691,0.05663 -0.09649,0.125841 -0.05958,0.06921 -0.239105,0.290519 -0.398956,0.491792 -0.752526,0.947534 -1.734086,1.888563 -2.70766,2.595858 -0.173032,0.125705 -0.314603,0.243805 -0.314603,0.26244 0,0.01864 -0.01518,0.0245 -0.03374,0.01303 -0.01856,-0.01147 -0.05043,0.0078 -0.07082,0.04282 -0.02039,0.03502 -0.03757,0.0519 -0.03817,0.03752 -6.11e-4,-0.01439 -0.134575,0.05965 -0.297718,0.164532 -0.163144,0.10488 -0.474601,0.293976 -0.692126,0.420216 -0.217525,0.12624 -0.400926,0.242413 -0.40756,0.258157 -0.0066,0.01575 -0.02686,0.01949 -0.04494,0.0083 -0.01808,-0.01118 -0.03288,-5.03e-4 -0.03288,0.02374 0,0.02424 -0.0096,0.03447 -0.02135,0.02273 -0.02299,-0.02299 -0.860692,0.37369 -0.948543,0.449169 -0.02918,0.02507 -0.05345,0.03894 -0.05393,0.03083 -0.0019,-0.03217 -0.270544,0.07659 -0.270544,0.109542 0,0.01941 -0.01332,0.02706 -0.0296,0.01699 -0.01628,-0.01006 -0.183526,0.04341 -0.371655,0.118812 -0.188129,0.07541 -0.478178,0.182171 -0.644549,0.237254 -0.166372,0.05508 -0.307585,0.113005 -0.313806,0.128728 -0.0062,0.01572 -0.03454,0.01967 -0.06292,0.0088 -0.02839,-0.01089 -0.05161,-9.35e-4 -0.05161,0.02212 0,0.02306 -0.01325,0.03373 -0.02945,0.02372 -0.0162,-0.01001 -0.15777,0.0217 -0.314603,0.07048 -1.057174,0.328769 -2.995544,0.726135 -3.861022,0.791508 -0.147427,0.01114 -0.29496,0.03465 -0.327852,0.05226 -0.03289,0.0176 -0.067,0.0248 -0.0758,0.01601 -0.0088,-0.0088 -0.330471,0.0065 -0.71483,0.03402 -0.38436,0.02751 -0.957709,0.05887 -1.27411,0.06968 -0.877106,0.02998 -10.425102,0.04412 -10.732442,0.01589 l 1.36e-4,0 z m 8.916737,-2.235918 c 0.168087,-0.0107 0.45123,-0.02922 0.629205,-0.04114 0.177975,-0.01193 0.34786,-0.02244 0.377523,-0.02335 0.02966,-8.99e-4 0.215727,-0.01601 0.413478,-0.03356 0.19775,-0.01754 0.464591,-0.04066 0.592981,-0.05137 0.223615,-0.01866 0.93428,-0.09753 1.312611,-0.145681 0.237548,-0.03023 1.193185,-0.183699 1.33032,-0.213639 0.05933,-0.01295 0.140223,-0.02933 0.179773,-0.0364 0.03955,-0.0071 0.112358,-0.02083 0.161796,-0.03057 0.04944,-0.0097 0.146514,-0.02782 0.215727,-0.04017 0.06921,-0.01234 0.190559,-0.0401 0.269659,-0.06169 0.0791,-0.02159 0.168088,-0.04221 0.197751,-0.04583 0.13488,-0.01646 0.309604,-0.0656 0.350557,-0.09858 0.02472,-0.01991 0.04494,-0.02691 0.04494,-0.01555 0,0.01137 0.07685,-0.0036 0.170784,-0.03321 0.09393,-0.02963 0.211233,-0.06177 0.260671,-0.07143 0.110474,-0.02157 0.543904,-0.160476 0.593251,-0.190124 0.01978,-0.01188 0.04404,-0.02254 0.05393,-0.02368 0.252371,-0.02926 2.022305,-0.842913 2.21934,-1.020255 0.03508,-0.03157 0.10827,-0.08036 0.162651,-0.108419 0.05438,-0.02806 0.09888,-0.06446 0.09888,-0.0809 0,-0.01643 0.02427,-0.02988 0.05393,-0.02988 0.02966,0 0.05393,-0.01618 0.05393,-0.03595 0,-0.01978 0.02103,-0.03596 0.04674,-0.03596 0.02571,0 0.143009,-0.07758 0.260671,-0.172406 0.117657,-0.09482 0.254375,-0.204035 0.303812,-0.242693 0.317267,-0.248089 1.199481,-1.216629 1.384252,-1.519699 0.01978,-0.03244 0.09972,-0.156064 0.177666,-0.274729 0.17155,-0.261182 0.457227,-0.803725 0.562052,-1.067423 0.04213,-0.105967 0.09381,-0.233116 0.114857,-0.282554 0.02105,-0.04944 0.04102,-0.09798 0.04438,-0.107863 0.0034,-0.0099 0.016,-0.04225 0.02809,-0.07191 0.121588,-0.298457 0.366227,-1.174789 0.3996,-1.431421 0.01109,-0.08527 0.02737,-0.166696 0.03618,-0.180951 0.0088,-0.01426 0.02513,-0.0982 0.03626,-0.186536 0.01113,-0.08834 0.02929,-0.233424 0.04035,-0.322412 0.01106,-0.08899 0.02773,-0.202244 0.03704,-0.251682 0.04253,-0.225816 0.08555,-1.048469 0.08647,-1.653911 0.0015,-1.010614 -0.06811,-1.613056 -0.270234,-2.337048 -0.0951,-0.34065 -0.240713,-0.777366 -0.294551,-0.883415 -0.01937,-0.03816 -0.128552,-0.263536 -0.242622,-0.500836 -0.114073,-0.2373 -0.261968,-0.506431 -0.328664,-0.598068 -0.06669,-0.09164 -0.12126,-0.184669 -0.12126,-0.206739 0,-0.02207 -0.01618,-0.04013 -0.03596,-0.04013 -0.01978,0 -0.03596,-0.02292 -0.03596,-0.05094 0,-0.02802 -0.01308,-0.05633 -0.02906,-0.06292 -0.01598,-0.0066 -0.08334,-0.09288 -0.149683,-0.191758 -0.06634,-0.09887 -0.146295,-0.206263 -0.177676,-0.23864 -0.03139,-0.03238 -0.105599,-0.121364 -0.164924,-0.19775 -0.105081,-0.135302 -0.779873,-0.819484 -0.95508,-0.968372 -0.04818,-0.04094 -0.144231,-0.113751 -0.213444,-0.161795 -0.06921,-0.04805 -0.133931,-0.09651 -0.143818,-0.107704 -0.0157,-0.01777 -0.184943,-0.13088 -0.414071,-0.276726 -0.148363,-0.09444 -0.867617,-0.43539 -0.970566,-0.460083 -0.05911,-0.01418 -0.127703,-0.04171 -0.152422,-0.06118 -0.02472,-0.01947 -0.04494,-0.02335 -0.04494,-0.0086 0,0.01473 -0.02427,0.0066 -0.05393,-0.01798 -0.02966,-0.02462 -0.05393,-0.03492 -0.05393,-0.0229 0,0.01202 -0.07779,-0.0088 -0.172865,-0.04628 -0.09508,-0.03748 -0.220467,-0.07721 -0.278648,-0.08831 -0.05818,-0.01109 -0.21904,-0.04569 -0.357465,-0.07687 -0.138425,-0.03119 -0.445218,-0.08084 -0.681763,-0.110326 -0.236544,-0.02949 -0.479237,-0.06006 -0.539318,-0.06792 -0.306882,-0.04018 -0.957875,-0.06131 -1.832823,-0.05951 -0.917426,0.0019 -1.177377,0.0099 -2.051646,0.06298 -0.197751,0.01201 -0.383816,0.02157 -0.413478,0.02125 -0.02966,-3.24e-4 -0.385613,0.02141 -0.791001,0.04831 -4.496053,0.298314 -5.591368,0.298432 -10.08526,0.0011 -0.415275,-0.02748 -0.779316,-0.04942 -0.808978,-0.04875 -0.04902,0.0011 -0.376511,-0.01882 -1.06066,-0.06451 -0.340135,-0.02272 -2.528968,-0.02256 -2.742082,2.16e-4 -0.09363,0.01 -0.291586,0.02716 -0.439899,0.03814 -0.148312,0.01098 -0.302018,0.02592 -0.341568,0.0332 -0.03955,0.0073 -0.177077,0.02461 -0.305614,0.0385 -0.128538,0.01389 -0.379321,0.05752 -0.557296,0.09694 -0.177975,0.03942 -0.371194,0.07973 -0.429375,0.08957 -0.05818,0.0098 -0.183597,0.04856 -0.278702,0.08605 -0.09511,0.03749 -0.220598,0.07656 -0.278873,0.08682 -0.136945,0.02413 -0.961033,0.392034 -1.087972,0.485717 -0.05358,0.03954 -0.107564,0.0719 -0.119963,0.0719 -0.02081,0 -0.335004,0.210558 -0.375868,0.251887 -0.0099,0.01 -0.0827,0.06611 -0.161796,0.124701 -0.370672,0.27454 -1.123265,1.025542 -1.312342,1.309567 -0.07437,0.111713 -0.144692,0.202058 -0.26067,0.334881 -0.05438,0.06228 -0.09888,0.127232 -0.09888,0.144338 0,0.01711 -0.07766,0.147674 -0.172571,0.29015 -0.152665,0.229167 -0.438565,0.779935 -0.591731,1.139934 -0.223887,0.526224 -0.454942,1.432645 -0.51783,2.031434 -0.03015,0.287043 -0.04213,1.960403 -0.01648,2.301093 0.01567,0.208126 0.101768,0.89322 0.128596,1.023267 0.01004,0.04865 0.0276,0.153812 0.03904,0.233704 0.01144,0.07989 0.04533,0.250425 0.07532,0.378963 0.02999,0.128537 0.06217,0.274153 0.0715,0.323591 0.02114,0.111939 0.224599,0.777216 0.274898,0.898864 0.02044,0.04944 0.04122,0.10927 0.04616,0.132961 0.02326,0.111363 0.512575,1.102666 0.691736,1.401389 0.13142,0.219121 0.23972,0.3756 0.316134,0.456767 0.02154,0.02288 0.04581,0.05986 0.05393,0.08218 0.05878,0.161536 1.078674,1.198742 1.435004,1.459359 0.128521,0.094 0.253216,0.187031 0.277099,0.206739 0.02388,0.01971 0.06029,0.03583 0.0809,0.03583 0.02061,0 0.03747,0.01618 0.03747,0.03595 0,0.01978 0.02427,0.03596 0.05393,0.03596 0.02966,0 0.05393,0.01344 0.05393,0.02988 0,0.01643 0.04403,0.05284 0.09784,0.0809 0.05381,0.02806 0.177275,0.103934 0.274364,0.168607 0.175375,0.11682 1.230036,0.651548 1.323001,0.67078 0.02673,0.0055 0.107382,0.03613 0.179234,0.06799 0.132176,0.05862 0.624406,0.247425 0.624406,0.239497 0,-0.0024 0.04199,0.01167 0.09332,0.03118 0.138452,0.05264 0.830302,0.254735 0.913409,0.266816 0.03955,0.0057 0.08809,0.02022 0.107864,0.03215 0.03581,0.02161 0.238974,0.07171 0.341568,0.08423 0.02966,0.0036 0.123712,0.02619 0.208997,0.05016 0.08529,0.02396 0.206633,0.05177 0.26966,0.06179 0.06303,0.01002 0.146953,0.02526 0.186503,0.03386 0.03955,0.0086 0.120448,0.0248 0.179773,0.03598 0.05933,0.01118 0.132133,0.025 0.161796,0.0307 0.37704,0.07245 1.128943,0.192033 1.366274,0.217295 0.108762,0.01158 0.319097,0.03643 0.467409,0.05523 0.266616,0.0338 0.531629,0.06105 0.880887,0.09059 0.09888,0.0084 0.268761,0.02362 0.377524,0.0339 0.108762,0.01028 0.327186,0.02742 0.485386,0.03809 0.158201,0.01067 0.400894,0.02734 0.539319,0.03705 0.138425,0.0097 0.502465,0.02726 0.808978,0.039 0.306513,0.01174 0.565386,0.02906 0.575274,0.03849 0.02376,0.02264 6.221485,-0.01365 6.615643,-0.03873 l 0,-1.8e-5 z"
   id="path3014"
   inkscape:connector-curvature="0" /><path
   inkscape:connector-curvature="0"
   id="path3016"
   d="m 42.80292,67.658174 c -0.148312,-0.01362 -0.415275,-0.02545 -0.59325,-0.02629 -0.177975,-8.27e-4 -0.631003,-0.02624 -1.006729,-0.05644 -0.375725,-0.0302 -0.702316,-0.0476 -0.725757,-0.03865 -0.02344,0.0089 -0.04771,0.002 -0.05393,-0.01532 -0.0062,-0.01737 -0.143913,-0.03923 -0.30598,-0.04858 -0.162069,-0.0093 -0.307685,-0.02456 -0.323592,-0.03382 -0.01591,-0.0093 -0.125999,-0.02777 -0.244649,-0.04115 -0.11865,-0.01338 -0.49887,-0.07438 -0.844933,-0.135541 -0.346063,-0.06117 -0.661564,-0.114875 -0.701114,-0.119355 -0.03955,-0.0045 -0.09618,-0.01671 -0.125841,-0.02719 -0.02966,-0.01048 -0.248087,-0.06313 -0.485387,-0.117007 -0.237301,-0.05388 -0.640835,-0.159685 -0.896745,-0.235133 -0.255909,-0.07545 -0.476996,-0.129939 -0.491304,-0.121095 -0.01431,0.0088 -0.03144,0.0022 -0.03807,-0.01473 -0.01246,-0.03184 -0.804148,-0.305183 -0.883958,-0.305204 -0.02472,-7e-6 -0.04494,-0.01024 -0.04494,-0.02275 0,-0.0125 -0.06067,-0.04409 -0.13483,-0.07019 -0.242414,-0.08532 -1.06347,-0.440203 -1.344042,-0.580932 -0.150917,-0.0757 -0.284398,-0.127628 -0.296626,-0.1154 -0.01223,0.01223 -0.02223,0.0024 -0.02223,-0.02184 0,-0.02424 -0.01618,-0.03407 -0.03596,-0.02185 -0.01977,0.01222 -0.03596,0.0085 -0.03596,-0.0083 0,-0.0434 -0.487427,-0.301277 -0.515806,-0.272898 -0.01293,0.01293 -0.02351,0.0065 -0.02351,-0.01434 0,-0.02082 -0.117302,-0.107181 -0.260671,-0.191922 -0.337802,-0.199659 -1.067512,-0.685805 -1.325745,-0.883228 -0.111191,-0.08501 -0.212313,-0.14441 -0.224717,-0.132007 -0.0124,0.0124 -0.02255,0.0051 -0.02255,-0.01617 0,-0.0213 -0.129437,-0.145806 -0.287637,-0.276688 -0.1582,-0.130882 -0.287636,-0.231663 -0.287636,-0.223958 0,0.04347 -1.250176,-1.244318 -1.538661,-1.58495 -0.188411,-0.222469 -0.356138,-0.404489 -0.372726,-0.404489 -0.01659,0 -0.02612,-0.0143 -0.02117,-0.03178 0.01188,-0.042 -0.328786,-0.507537 -0.371403,-0.507537 -0.0182,0 -0.02904,-0.0127 -0.0241,-0.02822 0.01141,-0.03581 -0.296229,-0.511099 -0.33081,-0.511099 -0.01416,0 -0.02599,-0.02023 -0.02629,-0.04494 -3.05e-4,-0.02472 -0.09355,-0.197757 -0.207225,-0.38453 -0.11367,-0.186774 -0.328764,-0.583173 -0.477987,-0.880888 -0.149222,-0.297715 -0.289226,-0.553186 -0.311119,-0.567715 -0.02189,-0.01453 -0.02746,-0.02666 -0.01236,-0.02697 0.02971,-5.97e-4 -0.06771,-0.255306 -0.109741,-0.286927 -0.01406,-0.01058 -0.02557,-0.03542 -0.02557,-0.05519 0,-0.0447 -0.239441,-0.640518 -0.267307,-0.66516 -0.01118,-0.0099 -0.02083,-0.03416 -0.02144,-0.05393 -0.0024,-0.07833 -0.139597,-0.449433 -0.166118,-0.449433 -0.01554,0 -0.01895,-0.02427 -0.0076,-0.05393 0.01138,-0.02966 0.0033,-0.05393 -0.01798,-0.05393 -0.02127,0 -0.02936,-0.02427 -0.01798,-0.05393 0.01138,-0.02966 0.0033,-0.05393 -0.01798,-0.05393 -0.02127,0 -0.02936,-0.02427 -0.01798,-0.05393 0.01138,-0.02966 0.0033,-0.05393 -0.01798,-0.05393 -0.02127,0 -0.02936,-0.02427 -0.01798,-0.05393 0.01138,-0.02966 0.0018,-0.05393 -0.02123,-0.05393 -0.02306,0 -0.03362,-0.01343 -0.02348,-0.02984 0.02118,-0.03427 -0.11379,-0.507673 -0.161573,-0.566722 -0.01747,-0.02159 -0.02455,-0.04648 -0.01573,-0.0553 0.0088,-0.0088 -0.01587,-0.136769 -0.05487,-0.284328 -0.123151,-0.465934 -0.322899,-1.375801 -0.34259,-1.560524 -0.01042,-0.0977 -0.02853,-0.193159 -0.04025,-0.212123 -0.01172,-0.01896 -0.02585,-0.08464 -0.03139,-0.145948 -0.0085,-0.09417 -0.104245,-0.824958 -0.174733,-1.333924 -0.02345,-0.169324 -0.01656,-0.08718 -0.07688,-0.916842 -0.04447,-0.611695 -0.06308,-2.904807 -0.02874,-3.541527 0.03509,-0.650662 0.266495,-1.971953 0.465692,-2.659052 0.04942,-0.170478 0.0811,-0.324137 0.07039,-0.341464 -0.01071,-0.01733 -0.0065,-0.03693 0.0092,-0.04356 0.04172,-0.01752 0.333241,-0.860684 0.310371,-0.897688 -0.01061,-0.01717 -0.0044,-0.03121 0.0139,-0.03121 0.01826,0 0.06135,-0.07685 0.09577,-0.170784 0.03442,-0.09393 0.221502,-0.494376 0.415743,-0.889876 0.194241,-0.3955 0.354345,-0.731226 0.355785,-0.746058 0.0014,-0.01483 0.03557,-0.05992 0.07584,-0.100186 0.04027,-0.04027 0.06359,-0.08881 0.05181,-0.107864 -0.01177,-0.01905 -0.0061,-0.03464 0.01253,-0.03464 0.04205,0 0.16206,-0.178901 0.16206,-0.241585 0,-0.02533 0.01133,-0.04605 0.02519,-0.04605 0.03489,0 0.222069,-0.287376 0.188057,-0.28873 -0.01511,-6e-4 0.0012,-0.01778 0.0362,-0.03816 0.03502,-0.02039 0.05429,-0.05226 0.04282,-0.07082 -0.01147,-0.01856 -0.0056,-0.03375 0.01303,-0.03375 0.01864,0 0.135942,-0.141571 0.26068,-0.314602 0.124737,-0.173032 0.397632,-0.514683 0.606432,-0.759226 0.2088,-0.244543 0.407237,-0.48036 0.440972,-0.524039 0.05801,-0.0751 0.05733,-0.09878 -0.0125,-0.436264 -0.0594,-0.287081 -0.07842,-0.555437 -0.09729,-1.372605 -0.0129,-0.558666 -0.01377,-1.015739 -0.0019,-1.015717 0.01184,2.2e-5 0.03436,-0.254788 0.05004,-0.566245 0.03096,-0.614845 0.04607,-0.829284 0.07794,-1.105603 0.0114,-0.09887 0.02785,-0.244491 0.03655,-0.323592 0.0087,-0.0791 0.02223,-0.200446 0.03007,-0.269659 0.03496,-0.308558 0.241466,-1.475657 0.362617,-2.049411 0.07307,-0.346063 0.136341,-0.653475 0.140597,-0.683137 0.0043,-0.02966 0.01748,-0.0782 0.02939,-0.107864 0.02947,-0.0734 0.211325,-0.795661 0.217269,-0.86291 0.0026,-0.02966 0.01733,-0.06324 0.03269,-0.07462 0.01536,-0.01138 0.03154,-0.07202 0.03595,-0.134758 0.0044,-0.06274 0.01711,-0.114101 0.0282,-0.114141 0.01109,-3.9e-5 0.04167,-0.08501 0.06794,-0.188833 0.02628,-0.103819 0.151976,-0.488083 0.279331,-0.853921 0.127355,-0.365838 0.233728,-0.693474 0.236385,-0.72808 0.0027,-0.03461 0.01629,-0.06292 0.03029,-0.06292 0.014,0 0.04415,-0.05663 0.06699,-0.125841 0.03636,-0.110161 0.05638,-0.125841 0.160729,-0.125841 0.06556,0 0.335312,0.04926 0.599451,0.109459 0.264139,0.0602 0.512612,0.112786 0.552162,0.116852 0.03955,0.0041 0.08,0.01666 0.08989,0.02798 0.03408,0.03902 0.468062,0.145051 0.503655,0.123053 0.01961,-0.01212 0.03566,-0.0065 0.03566,0.01245 0,0.02996 0.313063,0.12907 0.413478,0.130896 0.01978,3.59e-4 0.04404,0.01014 0.05393,0.02173 0.03307,0.03877 0.259536,0.104155 0.291767,0.08423 0.0175,-0.01082 0.03182,-8.03e-4 0.03182,0.02225 0,0.02306 0.02427,0.03261 0.05393,0.02123 0.02966,-0.01138 0.05393,-0.008 0.05393,0.0076 0,0.01554 0.08882,0.05626 0.19737,0.09047 0.108553,0.03422 0.418593,0.149761 0.688976,0.256761 0.270384,0.107 0.505159,0.18617 0.521722,0.175934 0.01656,-0.01024 0.03011,-0.0047 0.03011,0.01236 0,0.03353 0.323396,0.159821 0.369846,0.144433 0.01555,-0.0052 0.03982,0.0084 0.05393,0.03018 0.02554,0.03937 0.409557,0.218678 0.509636,0.237967 0.02889,0.0056 0.06934,0.02252 0.08989,0.03766 0.02055,0.01514 0.474207,0.243502 1.008133,0.507463 1.043245,0.515757 1.763443,0.902876 2.534798,1.362496 0.266963,0.159072 0.505611,0.28934 0.53033,0.289484 0.02472,1.43e-4 0.04494,0.01177 0.04494,0.02583 0,0.03396 0.370347,0.257521 0.402942,0.243239 0.01398,-0.0061 0.04634,0.01532 0.07191,0.04765 0.03883,0.0491 0.839083,0.577243 1.469781,0.970004 l 0.16488,0.102677 0.391548,-0.08847 c 0.215351,-0.04866 0.569914,-0.115043 0.787916,-0.147518 0.218003,-0.03248 0.420638,-0.06779 0.450301,-0.07848 0.02966,-0.01069 0.06885,-0.01594 0.08709,-0.01166 0.01824,0.0043 0.236664,-0.01694 0.485387,-0.04714 1.217746,-0.14788 2.288804,-0.200033 4.155545,-0.202346 1.430419,-0.0018 2.156614,0.01419 2.480867,0.05454 0.0791,0.0098 0.326808,0.02584 0.550463,0.03555 0.223656,0.0097 0.418746,0.02513 0.433534,0.03427 0.01479,0.0091 0.172299,0.02491 0.350025,0.03505 0.177725,0.01014 0.346676,0.02668 0.375445,0.03676 0.02877,0.01008 0.157474,0.02717 0.286012,0.03796 0.233407,0.0196 1.050327,0.157402 1.37752,0.232362 0.299608,0.06864 0.519406,0.0814 0.607142,0.03526 0.171747,-0.09033 1.666298,-1.050519 1.700682,-1.092616 0.01978,-0.02421 0.04405,-0.04273 0.05393,-0.04115 0.03891,0.0062 1.042683,-0.599536 1.042683,-0.629227 0,-0.01742 0.01214,-0.02975 0.02697,-0.02741 0.06394,0.0101 0.108084,-0.0087 0.181982,-0.07757 0.04328,-0.04032 0.07869,-0.06586 0.07869,-0.05675 0,0.02803 0.987041,-0.522239 1.015166,-0.565953 0.01453,-0.02258 0.02666,-0.0294 0.02697,-0.01516 5.54e-4,0.02608 1.584991,-0.751156 1.618507,-0.793946 0.0099,-0.01262 0.04225,-0.02756 0.07191,-0.03319 0.107211,-0.02034 0.647183,-0.271537 0.647183,-0.301067 0,-0.01665 0.01213,-0.02835 0.02697,-0.02601 0.07242,0.01144 0.152379,-0.0086 0.196038,-0.0492 0.0266,-0.02472 0.07225,-0.0498 0.101443,-0.05574 0.02919,-0.0059 0.336218,-0.121319 0.682281,-0.2564 0.346063,-0.135081 0.758642,-0.291244 0.916842,-0.347029 0.1582,-0.05579 0.292728,-0.113427 0.298948,-0.128092 0.0062,-0.01467 0.03453,-0.01775 0.06292,-0.0069 0.02839,0.01089 0.05162,0.0059 0.05163,-0.01101 1.4e-5,-0.01695 0.04258,-0.03328 0.09458,-0.03629 0.05201,-0.003 0.104581,-0.01919 0.116827,-0.03595 0.01225,-0.01676 0.04654,-0.03215 0.0762,-0.03419 0.113347,-0.0078 0.917428,-0.243348 0.928901,-0.272117 0.0066,-0.01663 0.02686,-0.02109 0.04494,-0.0099 0.01808,0.01118 0.05243,0.0082 0.07631,-0.0065 0.02388,-0.01476 0.07646,-0.03056 0.116852,-0.03511 0.04039,-0.0045 0.257625,-0.05006 0.482751,-0.101126 0.567562,-0.128755 0.621734,-0.12553 0.705228,0.04197 0.03697,0.07416 0.06919,0.142919 0.07161,0.152807 0.0024,0.0099 0.01691,0.07056 0.03219,0.134829 0.01529,0.06427 0.04269,0.116853 0.06089,0.116853 0.0182,0 0.02946,0.01214 0.02502,0.02697 -0.01563,0.05218 0.08973,0.368534 0.122735,0.368534 0.01837,0 0.02464,0.01418 0.01393,0.0315 -0.01071,0.01733 0.0212,0.150809 0.07091,0.296625 0.04971,0.145817 0.140524,0.435006 0.201816,0.642644 0.06129,0.207638 0.120416,0.392971 0.131393,0.411852 0.01097,0.01888 0.02526,0.08278 0.03174,0.141994 0.0065,0.05922 0.0237,0.116576 0.03827,0.127467 0.01457,0.01089 0.0265,0.04407 0.02652,0.07373 0,0.09629 0.214246,0.916478 0.242575,0.928902 0.01513,0.0066 0.01954,0.02494 0.0098,0.04069 -0.02026,0.03278 0.09068,0.621095 0.122263,0.648362 0.01146,0.0099 0.02234,0.05843 0.02419,0.107864 0.0019,0.04944 0.05576,0.397298 0.11979,0.773024 0.115392,0.67708 0.278533,1.902444 0.303967,2.283116 0.0073,0.108762 0.02455,0.359545 0.03841,0.557296 0.02979,0.425092 0.02964,1.920517 -3.59e-4,2.229184 -0.03319,0.343077 -0.04722,0.467409 -0.05273,0.467409 -0.0028,0 -0.02592,0.09704 -0.05133,0.215647 -0.04528,0.211376 -0.04433,0.217849 0.04796,0.326835 0.504863,0.596224 0.812246,0.973604 0.971173,1.192327 0.104174,0.143369 0.206987,0.260671 0.228469,0.260671 0.02148,0 0.02949,0.0096 0.01778,0.02128 -0.01171,0.0117 0.05745,0.138481 0.153677,0.281723 0.09623,0.143242 0.255666,0.396583 0.354307,0.562979 0.09864,0.166396 0.204765,0.330853 0.23583,0.365459 0.03107,0.03461 0.04908,0.06292 0.04003,0.06292 -0.0091,0 0.08609,0.20629 0.211424,0.458421 0.232054,0.466807 0.392782,0.826227 0.506467,1.13257 0.03486,0.09393 0.0739,0.170784 0.08675,0.170784 0.01285,0 0.02485,0.02831 0.02667,0.06292 0.0018,0.03461 0.07583,0.289434 0.164474,0.566284 0.08864,0.27685 0.205279,0.689429 0.25919,0.916842 0.05391,0.227413 0.107277,0.437747 0.118596,0.46741 0.01132,0.02966 0.01721,0.06848 0.01308,0.08626 -0.0041,0.01778 0.0035,0.05823 0.0169,0.08989 0.01341,0.03166 0.02798,0.08992 0.03238,0.129466 0.0044,0.03955 0.03372,0.257974 0.06516,0.485386 0.119689,0.865507 0.129652,1.074344 0.127808,2.678617 -0.0017,1.451455 -0.0417,2.230431 -0.157057,3.056139 -0.03039,0.217525 -0.0614,0.468309 -0.06891,0.557296 -0.0075,0.08899 -0.02128,0.186065 -0.03061,0.215728 -0.0093,0.02966 -0.06093,0.304715 -0.114662,0.611228 -0.05374,0.306512 -0.136585,0.724651 -0.184106,0.929195 -0.04752,0.204545 -0.07734,0.386565 -0.06626,0.404489 0.01108,0.01792 0.0048,0.03259 -0.01393,0.03259 -0.01874,0 -0.04524,0.06067 -0.05889,0.134829 -0.01365,0.07416 -0.07196,0.294307 -0.129591,0.489224 -0.05763,0.194917 -0.0967,0.367465 -0.08683,0.383441 0.0099,0.01598 0.0057,0.03447 -0.0092,0.04111 -0.01495,0.0066 -0.106767,0.246664 -0.204031,0.533401 -0.09726,0.286738 -0.214444,0.608025 -0.260405,0.713971 -0.04596,0.105946 -0.07463,0.207068 -0.06373,0.224716 0.0109,0.01765 0.0057,0.03209 -0.01163,0.03209 -0.03421,0 -0.200494,0.377859 -0.200494,0.455596 0,0.02627 -0.01069,0.04777 -0.02375,0.04777 -0.01307,0 -0.102471,0.165841 -0.198685,0.368535 -0.09621,0.202694 -0.27968,0.554592 -0.407704,0.781996 -0.128023,0.227405 -0.23277,0.433694 -0.23277,0.458421 0,0.02473 -0.01144,0.04496 -0.02542,0.04496 -0.01398,0 -0.152793,0.1982 -0.308462,0.440444 -0.155669,0.242244 -0.277709,0.440443 -0.271201,0.440443 0.0065,0 -0.03691,0.05663 -0.09649,0.125841 -0.05958,0.06921 -0.239105,0.290519 -0.398956,0.491792 -0.752526,0.947534 -1.734086,1.888563 -2.70766,2.595858 -0.173032,0.125705 -0.314603,0.243805 -0.314603,0.26244 0,0.01864 -0.01518,0.0245 -0.03374,0.01303 -0.01856,-0.01147 -0.05043,0.0078 -0.07082,0.04282 -0.02039,0.03502 -0.03757,0.0519 -0.03817,0.03752 -6.11e-4,-0.01439 -0.134575,0.05965 -0.297718,0.164532 -0.163144,0.10488 -0.474601,0.293976 -0.692126,0.420216 -0.217525,0.12624 -0.400926,0.242413 -0.40756,0.258157 -0.0066,0.01575 -0.02686,0.01949 -0.04494,0.0083 -0.01808,-0.01118 -0.03288,-5.03e-4 -0.03288,0.02374 0,0.02424 -0.0096,0.03447 -0.02135,0.02273 -0.02299,-0.02299 -0.860692,0.37369 -0.948543,0.449169 -0.02918,0.02507 -0.05345,0.03894 -0.05393,0.03083 -0.0019,-0.03217 -0.270544,0.07659 -0.270544,0.109542 0,0.01941 -0.01332,0.02706 -0.0296,0.01699 -0.01628,-0.01006 -0.183526,0.04341 -0.371655,0.118812 -0.188129,0.07541 -0.478178,0.182171 -0.644549,0.237254 -0.166372,0.05508 -0.307585,0.113005 -0.313806,0.128728 -0.0062,0.01572 -0.03454,0.01967 -0.06292,0.0088 -0.02839,-0.01089 -0.05161,-9.35e-4 -0.05161,0.02212 0,0.02306 -0.01325,0.03373 -0.02945,0.02372 -0.0162,-0.01001 -0.15777,0.0217 -0.314603,0.07048 -1.057174,0.328769 -2.995544,0.726135 -3.861022,0.791508 -0.147427,0.01114 -0.29496,0.03465 -0.327852,0.05226 -0.03289,0.0176 -0.067,0.0248 -0.0758,0.01601 -0.0088,-0.0088 -0.330471,0.0065 -0.71483,0.03402 -0.38436,0.02751 -0.957709,0.05887 -1.27411,0.06968 -0.877106,0.02998 -10.425102,0.04412 -10.732442,0.01589 l 1.36e-4,0 z m 8.916737,-2.235918 c 0.168087,-0.0107 0.45123,-0.02922 0.629205,-0.04114 0.177975,-0.01193 0.34786,-0.02244 0.377523,-0.02335 0.02966,-8.99e-4 0.215727,-0.01601 0.413478,-0.03356 0.19775,-0.01754 0.464591,-0.04066 0.592981,-0.05137 0.223615,-0.01866 0.93428,-0.09753 1.312611,-0.145681 0.237548,-0.03023 1.193185,-0.183699 1.33032,-0.213639 0.05933,-0.01295 0.140223,-0.02933 0.179773,-0.0364 0.03955,-0.0071 0.112358,-0.02083 0.161796,-0.03057 0.04944,-0.0097 0.146514,-0.02782 0.215727,-0.04017 0.06921,-0.01234 0.190559,-0.0401 0.269659,-0.06169 0.0791,-0.02159 0.168088,-0.04221 0.197751,-0.04583 0.13488,-0.01646 0.309604,-0.0656 0.350557,-0.09858 0.02472,-0.01991 0.04494,-0.02691 0.04494,-0.01555 0,0.01137 0.07685,-0.0036 0.170784,-0.03321 0.09393,-0.02963 0.211233,-0.06177 0.260671,-0.07143 0.110474,-0.02157 0.543904,-0.160476 0.593251,-0.190124 0.01978,-0.01188 0.04404,-0.02254 0.05393,-0.02368 0.252371,-0.02926 2.022305,-0.842913 2.21934,-1.020255 0.03508,-0.03157 0.10827,-0.08036 0.162651,-0.108419 0.05438,-0.02806 0.09888,-0.06446 0.09888,-0.0809 0,-0.01643 0.02427,-0.02988 0.05393,-0.02988 0.02966,0 0.05393,-0.01618 0.05393,-0.03595 0,-0.01978 0.02103,-0.03596 0.04674,-0.03596 0.02571,0 0.143009,-0.07758 0.260671,-0.172406 0.117657,-0.09482 0.254375,-0.204035 0.303812,-0.242693 0.317267,-0.248089 1.199481,-1.216629 1.384252,-1.519699 0.01978,-0.03244 0.09972,-0.156064 0.177666,-0.274729 0.17155,-0.261182 0.457227,-0.803725 0.562052,-1.067423 0.04213,-0.105967 0.09381,-0.233116 0.114857,-0.282554 0.02105,-0.04944 0.04102,-0.09798 0.04438,-0.107863 0.0034,-0.0099 0.016,-0.04225 0.02809,-0.07191 0.121588,-0.298457 0.366227,-1.174789 0.3996,-1.431421 0.01109,-0.08527 0.02737,-0.166696 0.03618,-0.180951 0.0088,-0.01426 0.02513,-0.0982 0.03626,-0.186536 0.01113,-0.08834 0.02929,-0.233424 0.04035,-0.322412 0.01106,-0.08899 0.02773,-0.202244 0.03704,-0.251682 0.04253,-0.225816 0.08555,-1.048469 0.08647,-1.653911 0.0015,-1.010614 -0.06811,-1.613056 -0.270234,-2.337048 -0.0951,-0.34065 -0.240713,-0.777366 -0.294551,-0.883415 -0.01937,-0.03816 -0.128552,-0.263536 -0.242622,-0.500836 -0.114073,-0.2373 -0.261968,-0.506431 -0.328664,-0.598068 -0.06669,-0.09164 -0.12126,-0.184669 -0.12126,-0.206739 0,-0.02207 -0.01618,-0.04013 -0.03596,-0.04013 -0.01978,0 -0.03596,-0.02292 -0.03596,-0.05094 0,-0.02802 -0.01308,-0.05633 -0.02906,-0.06292 -0.01598,-0.0066 -0.08334,-0.09288 -0.149683,-0.191758 -0.06634,-0.09887 -0.146295,-0.206263 -0.177676,-0.23864 -0.03139,-0.03238 -0.105599,-0.121364 -0.164924,-0.19775 -0.105081,-0.135302 -0.779873,-0.819484 -0.95508,-0.968372 -0.04818,-0.04094 -0.144231,-0.113751 -0.213444,-0.161795 -0.06921,-0.04805 -0.133931,-0.09651 -0.143818,-0.107704 -0.0157,-0.01777 -0.184943,-0.13088 -0.414071,-0.276726 -0.148363,-0.09444 -0.867617,-0.43539 -0.970566,-0.460083 -0.05911,-0.01418 -0.127703,-0.04171 -0.152422,-0.06118 -0.02472,-0.01947 -0.04494,-0.02335 -0.04494,-0.0086 0,0.01473 -0.02427,0.0066 -0.05393,-0.01798 -0.02966,-0.02462 -0.05393,-0.03492 -0.05393,-0.0229 0,0.01202 -0.07779,-0.0088 -0.172865,-0.04628 -0.09508,-0.03748 -0.220467,-0.07721 -0.278648,-0.08831 -0.05818,-0.01109 -0.21904,-0.04569 -0.357465,-0.07687 -0.138425,-0.03119 -0.445218,-0.08084 -0.681763,-0.110326 -0.236544,-0.02949 -0.479237,-0.06006 -0.539318,-0.06792 -0.306882,-0.04018 -0.957875,-0.06131 -1.832823,-0.05951 -0.917426,0.0019 -1.177377,0.0099 -2.051646,0.06298 -0.197751,0.01201 -0.383816,0.02157 -0.413478,0.02125 -0.02966,-3.24e-4 -0.385613,0.02141 -0.791001,0.04831 -4.496053,0.298314 -5.591368,0.298432 -10.08526,0.0011 -0.415275,-0.02748 -0.779316,-0.04942 -0.808978,-0.04875 -0.04902,0.0011 -0.376511,-0.01882 -1.06066,-0.06451 -0.340135,-0.02272 -2.528968,-0.02256 -2.742082,2.16e-4 -0.09363,0.01 -0.291586,0.02716 -0.439899,0.03814 -0.148312,0.01098 -0.302018,0.02592 -0.341568,0.0332 -0.03955,0.0073 -0.177077,0.02461 -0.305614,0.0385 -0.128538,0.01389 -0.379321,0.05752 -0.557296,0.09694 -0.177975,0.03942 -0.371194,0.07973 -0.429375,0.08957 -0.05818,0.0098 -0.183597,0.04856 -0.278702,0.08605 -0.09511,0.03749 -0.220598,0.07656 -0.278873,0.08682 -0.136945,0.02413 -0.961033,0.392034 -1.087972,0.485717 -0.05358,0.03954 -0.107564,0.0719 -0.119963,0.0719 -0.02081,0 -0.335004,0.210558 -0.375868,0.251887 -0.0099,0.01 -0.0827,0.06611 -0.161796,0.124701 -0.370672,0.27454 -1.123265,1.025542 -1.312342,1.309567 -0.07437,0.111713 -0.144692,0.202058 -0.26067,0.334881 -0.05438,0.06228 -0.09888,0.127232 -0.09888,0.144338 0,0.01711 -0.07766,0.147674 -0.172571,0.29015 -0.152665,0.229167 -0.438565,0.779935 -0.591731,1.139934 -0.223887,0.526224 -0.454942,1.432645 -0.51783,2.031434 -0.03015,0.287043 -0.04213,1.960403 -0.01648,2.301093 0.01567,0.208126 0.101768,0.89322 0.128596,1.023267 0.01004,0.04865 0.0276,0.153812 0.03904,0.233704 0.01144,0.07989 0.04533,0.250425 0.07532,0.378963 0.02999,0.128537 0.06217,0.274153 0.0715,0.323591 0.02114,0.111939 0.224599,0.777216 0.274898,0.898864 0.02044,0.04944 0.04122,0.10927 0.04616,0.132961 0.02326,0.111363 0.512575,1.102666 0.691736,1.401389 0.13142,0.219121 0.23972,0.3756 0.316134,0.456767 0.02154,0.02288 0.04581,0.05986 0.05393,0.08218 0.05878,0.161536 1.078674,1.198742 1.435004,1.459359 0.128521,0.094 0.253216,0.187031 0.277099,0.206739 0.02388,0.01971 0.06029,0.03583 0.0809,0.03583 0.02061,0 0.03747,0.01618 0.03747,0.03595 0,0.01978 0.02427,0.03596 0.05393,0.03596 0.02966,0 0.05393,0.01344 0.05393,0.02988 0,0.01643 0.04403,0.05284 0.09784,0.0809 0.05381,0.02806 0.177275,0.103934 0.274364,0.168607 0.175375,0.11682 1.230036,0.651548 1.323001,0.67078 0.02673,0.0055 0.107382,0.03613 0.179234,0.06799 0.132176,0.05862 0.624406,0.247425 0.624406,0.239497 0,-0.0024 0.04199,0.01167 0.09332,0.03118 0.138452,0.05264 0.830302,0.254735 0.913409,0.266816 0.03955,0.0057 0.08809,0.02022 0.107864,0.03215 0.03581,0.02161 0.238974,0.07171 0.341568,0.08423 0.02966,0.0036 0.123712,0.02619 0.208997,0.05016 0.08529,0.02396 0.206633,0.05177 0.26966,0.06179 0.06303,0.01002 0.146953,0.02526 0.186503,0.03386 0.03955,0.0086 0.120448,0.0248 0.179773,0.03598 0.05933,0.01118 0.132133,0.025 0.161796,0.0307 0.37704,0.07245 1.128943,0.192033 1.366274,0.217295 0.108762,0.01158 0.319097,0.03643 0.467409,0.05523 0.266616,0.0338 0.531629,0.06105 0.880887,0.09059 0.09888,0.0084 0.268761,0.02362 0.377524,0.0339 0.108762,0.01028 0.327186,0.02742 0.485386,0.03809 0.158201,0.01067 0.400894,0.02734 0.539319,0.03705 0.138425,0.0097 0.502465,0.02726 0.808978,0.039 0.306513,0.01174 0.565386,0.02906 0.575274,0.03849 0.02376,0.02264 6.221485,-0.01365 6.615643,-0.03873 l 0,-1.8e-5 z"
   style="fill:#e6e6e6;fill-opacity:0.53439152;stroke:none" /></svg>