<?xml version="1.0" encoding="UTF-8" standalone="no"?>
<!-- Created with Inkscape (http://www.inkscape.org/) -->

<svg
   xmlns:dc="http://purl.org/dc/elements/1.1/"
   xmlns:cc="http://creativecommons.org/ns#"
   xmlns:rdf="http://www.w3.org/1999/02/22-rdf-syntax-ns#"
   xmlns:svg="http://www.w3.org/2000/svg"
   xmlns="http://www.w3.org/2000/svg"
   xmlns:sodipodi="http://sodipodi.sourceforge.net/DTD/sodipodi-0.dtd"
   xmlns:inkscape="http://www.inkscape.org/namespaces/inkscape"
   width="200"
   height="200"
   id="svg2998"
   version="1.1"
   inkscape:version="0.48.4 r9939"
   sodipodi:docname="graffiti.svg">
  <defs
     id="defs3000">
    <pattern
       patternUnits="userSpaceOnUse"
       width="400.01607"
       height="400.00264"
       patternTransform="translate(-0.01488755,652.3588)"
       id="pattern3021">
      <path
         transform="matrix(0.76629921,0,0,0.75796986,-5.7911958,-6.4389512)"
         sodipodi:open="true"
         sodipodi:end="12.550704"
         sodipodi:start="6.2769719"
         d="m 528.56642,270.72895 a 260,262.85715 0 1 1 -0.0269,-2.48468"
         sodipodi:ry="262.85715"
         sodipodi:rx="260"
         sodipodi:cy="272.36218"
         sodipodi:cx="268.57144"
         id="path3017"
         style="fill:#ff2a2a;fill-opacity:1;stroke:#000000;stroke-width:2;stroke-miterlimit:4;stroke-opacity:1;stroke-dasharray:none"
         sodipodi:type="arc" />
    </pattern>
    <filter
       id="filter2996"
       inkscape:label="Drop Shadow"
       color-interpolation-filters="sRGB">
      <feFlood
         id="feFlood2998"
         flood-opacity="0.5"
         flood-color="rgb(0,0,0)"
         result="flood" />
      <feComposite
         id="feComposite3000"
         in2="SourceGraphic"
         in="flood"
         operator="in"
         result="composite1" />
      <feGaussianBlur
         id="feGaussianBlur3002"
         stdDeviation="2"
         result="blur" />
      <feOffset
         id="feOffset3004"
         dx="4"
         dy="4"
         result="offset" />
      <feComposite
         id="feComposite3006"
         in2="offset"
         in="SourceGraphic"
         operator="over"
         result="composite2" />
    </filter>
  </defs>
  <sodipodi:namedview
     id="base"
     pagecolor="#ffffff"
     bordercolor="#666666"
     borderopacity="1.0"
     inkscape:pageopacity="0.0"
     inkscape:pageshadow="2"
     inkscape:zoom="1.979899"
     inkscape:cx="172.9098"
     inkscape:cy="169.89882"
     inkscape:document-units="px"
     inkscape:current-layer="layer1"
     showgrid="false"
     inkscape:window-width="1920"
     inkscape:window-height="1137"
     inkscape:window-x="1912"
     inkscape:window-y="-8"
     inkscape:window-maximized="1" />
  <metadata
     id="metadata3003">
    <rdf:RDF>
      <cc:Work
         rdf:about="">
        <dc:format>image/svg+xml</dc:format>
        <dc:type
           rdf:resource="http://purl.org/dc/dcmitype/StillImage" />
        <dc:title />
      </cc:Work>
    </rdf:RDF>
  </metadata>
  <g
     inkscape:label="Layer 1"
     inkscape:groupmode="layer"
     id="layer1"
     transform="translate(0,-852.36218)">
    <path
       sodipodi:type="arc"
       style="color:#000000;fill:none;stroke:none;stroke-width:1px;marker:none;visibility:visible;display:inline;overflow:visible;enable-background:accumulate"
       id="path3814"
       sodipodi:cx="-237.89093"
       sodipodi:cy="811.69336"
       sodipodi:rx="27.274118"
       sodipodi:ry="22.98097"
       d="m -210.61734,811.55057 c 0.0936,12.69179 -12.04134,23.04446 -27.10413,23.12332 -15.06278,0.0789 -27.34946,-10.14595 -27.44305,-22.83774 -0.0936,-12.6918 12.04134,-23.04446 27.10413,-23.12332 14.9622,-0.0783 27.20583,10.01477 27.44023,22.62051"
       sodipodi:start="6.2769719"
       sodipodi:end="12.550704"
       sodipodi:open="true" />
    <path
       sodipodi:type="arc"
       style="color:#000000;fill:none;stroke:none;stroke-width:1px;marker:none;visibility:visible;display:inline;overflow:visible;enable-background:accumulate"
       id="path3818"
       sodipodi:cx="57.326157"
       sodipodi:cy="647.03845"
       sodipodi:rx="12.374369"
       sodipodi:ry="20.455589"
       d="m 69.700286,646.91135 c 0.04246,11.2971 -5.4632,20.5121 -12.297243,20.5823 -6.834043,0.0702 -12.408553,-9.03101 -12.451016,-20.3281 -0.04246,-11.29709 5.4632,-20.5121 12.297243,-20.58229 6.788406,-0.0697 12.343388,8.91424 12.449737,20.13474"
       sodipodi:start="6.2769719"
       sodipodi:end="12.550704"
       sodipodi:open="true" />
    <path
       sodipodi:type="arc"
       style="color:#000000;fill:none;stroke:none;stroke-width:1px;marker:none;visibility:visible;display:inline;overflow:visible;enable-background:accumulate"
       id="path3013"
       sodipodi:cx="-289.40869"
       sodipodi:cy="149.98724"
       sodipodi:rx="83.337585"
       sodipodi:ry="62.124382"
       d="m -206.07271,149.60124 c 0.28597,34.30969 -36.79299,62.296 -82.81817,62.50919 -46.02519,0.21318 -83.56781,-27.4275 -83.85379,-61.73718 -0.28598,-34.30969 36.79298,-62.296006 82.81817,-62.509189 45.71784,-0.211759 83.12894,27.072899 83.84517,61.149939"
       transform="translate(0,652.36218)"
       sodipodi:start="6.2769719"
       sodipodi:end="12.550704"
       sodipodi:open="true" />
    <g
       id="g2995"
       transform="matrix(0.47989692,0,0,0.47989692,4.1064718,543.23034)"
       style="filter:url(#filter2996)">
      <path
         transform="matrix(1.2452189,0,0,1.9998973,-352.20103,-268.41605)"
         sodipodi:open="true"
         sodipodi:end="12.550704"
         sodipodi:start="6.2769719"
         d="m 604.06813,559.79654 c 0.55115,55.23022 -70.91011,100.28136 -159.6132,100.62453 -88.7031,0.34318 -161.05796,-44.15157 -161.60912,-99.38179 -0.55115,-55.23023 70.91011,-100.28137 159.6132,-100.62454 88.11075,-0.34088 160.21214,43.58076 161.59251,98.43649"
         sodipodi:ry="100.0051"
         sodipodi:rx="160.61426"
         sodipodi:cy="560.41791"
         sodipodi:cx="443.45697"
         id="path3032"
         style="color:#000000;fill:#c83737;stroke:none;stroke-width:1px;marker:none;visibility:visible;display:inline;overflow:visible;enable-background:accumulate"
         sodipodi:type="arc" />
      <path
         transform="matrix(0.53460094,0,0,0.83211799,74.686606,756.13481)"
         d="m 211.12188,123.72327 c 0,32.07878 -40.47733,58.08377 -90.40865,58.08377 -49.931324,0 -90.408657,-26.00499 -90.408657,-58.08377 0,-32.078784 40.477333,-58.083774 90.408657,-58.083774 49.93132,0 90.40865,26.00499 90.40865,58.083774 z"
         sodipodi:ry="58.083771"
         sodipodi:rx="90.408653"
         sodipodi:cy="123.72327"
         sodipodi:cx="120.71323"
         id="path3015"
         style="color:#000000;fill:none;stroke:#ffffff;stroke-width:7.49657154;stroke-miterlimit:4;stroke-opacity:1;stroke-dasharray:none;marker:none;visibility:visible;display:inline;overflow:visible;enable-background:accumulate"
         sodipodi:type="arc" />
      <path
         transform="matrix(0.53460094,0,0,0.83211799,210.02426,753.12717)"
         d="m 211.12188,123.72327 c 0,32.07878 -40.47733,58.08377 -90.40865,58.08377 -49.931324,0 -90.408657,-26.00499 -90.408657,-58.08377 0,-32.078784 40.477333,-58.083774 90.408657,-58.083774 49.93132,0 90.40865,26.00499 90.40865,58.083774 z"
         sodipodi:ry="58.083771"
         sodipodi:rx="90.408653"
         sodipodi:cy="123.72327"
         sodipodi:cx="120.71323"
         id="path3015-1"
         style="color:#000000;fill:none;stroke:#ffffff;stroke-width:7.49657154;stroke-miterlimit:4;stroke-opacity:1;stroke-dasharray:none;marker:none;visibility:visible;display:inline;overflow:visible;enable-background:accumulate"
         sodipodi:type="arc" />
      <rect
         ry="0.031139975"
         y="855.51904"
         x="187.29617"
         height="6.414835"
         width="39.999996"
         id="rect3809"
         style="fill:#ffffff;fill-opacity:1;stroke:none" />
      <rect
         ry="0.20903537"
         y="794.80469"
         x="221.04091"
         height="40.134792"
         width="84.469543"
         id="rect3811"
         style="fill:#c83737;fill-opacity:1;stroke:none" />
      <rect
         ry="0.20833334"
         y="815.74982"
         x="300.51044"
         height="25"
         width="5"
         id="rect3813"
         style="fill:#ffffff;fill-opacity:1;stroke:none" />
      <rect
         transform="matrix(0,1,-1,0,0,0)"
         ry="0.20833334"
         y="-325.54807"
         x="815.44623"
         height="25"
         width="5"
         id="rect3813-4"
         style="fill:#ffffff;fill-opacity:1;stroke:none" />
      <path
         transform="matrix(1.8246706,-6.8097636,7.8287658,2.0977114,-1618.067,1085.7514)"
         d="m 98.139308,193.63806 c 0.699962,0.93835 0.602299,2.24861 0.04103,3.22628"
         sodipodi:t0="0.63701445"
         sodipodi:argument="-39.558125"
         sodipodi:radius="3.8340743"
         sodipodi:revolution="0.4346759"
         sodipodi:expansion="1"
         sodipodi:cy="193.92857"
         sodipodi:cx="95.714287"
         id="path3862"
         style="fill:none;stroke:#ffffff;stroke-width:0.66145623;stroke-linecap:butt;stroke-linejoin:miter;stroke-miterlimit:4;stroke-opacity:1;stroke-dasharray:none"
         sodipodi:type="spiral" />
    </g>
  </g>
</svg>
