<?xml version="1.0" encoding="UTF-8" standalone="no"?>
<!-- Generator: Adobe Illustrator 16.0.0, SVG Export Plug-In . SVG Version: 6.00 Build 0)  -->

<svg
   xmlns:dc="http://purl.org/dc/elements/1.1/"
   xmlns:cc="http://creativecommons.org/ns#"
   xmlns:rdf="http://www.w3.org/1999/02/22-rdf-syntax-ns#"
   xmlns:svg="http://www.w3.org/2000/svg"
   xmlns="http://www.w3.org/2000/svg"
   xmlns:sodipodi="http://sodipodi.sourceforge.net/DTD/sodipodi-0.dtd"
   xmlns:inkscape="http://www.inkscape.org/namespaces/inkscape"
   version="1.1"
   id="Capa_1"
   x="0px"
   y="0px"
   width="67.666557"
   height="118.70556"
   viewBox="0 0 67.666556 118.70556"
   xml:space="preserve"
   inkscape:version="0.48.4 r9939"
   sodipodi:docname="lArrow.svg"><metadata
   id="metadata41"><rdf:RDF><cc:Work
       rdf:about=""><dc:format>image/svg+xml</dc:format><dc:type
         rdf:resource="http://purl.org/dc/dcmitype/StillImage" /><dc:title /></cc:Work></rdf:RDF></metadata><defs
   id="defs39" /><sodipodi:namedview
   pagecolor="#ffffff"
   bordercolor="#666666"
   borderopacity="1"
   objecttolerance="10"
   gridtolerance="10"
   guidetolerance="10"
   inkscape:pageopacity="0"
   inkscape:pageshadow="2"
   inkscape:window-width="1920"
   inkscape:window-height="1137"
   id="namedview37"
   showgrid="false"
   fit-margin-top="0"
   fit-margin-left="0"
   fit-margin-right="0"
   fit-margin-bottom="0"
   inkscape:zoom="5.9091579"
   inkscape:cx="-18.258024"
   inkscape:cy="52.302467"
   inkscape:window-x="1912"
   inkscape:window-y="-8"
   inkscape:window-maximized="1"
   inkscape:current-layer="Capa_1" />
<g
   id="g3"
   transform="matrix(-0.26271186,0,0,0.26271186,93.185986,6.5677965e-5)"
   style="fill:#ffffff;opacity:0.75">
	<path
   d="M 345.441,248.292 151.154,442.573 c -12.359,12.365 -32.397,12.365 -44.75,0 -12.354,-12.354 -12.354,-32.391 0,-44.744 L 278.318,225.92 106.409,54.017 c -12.354,-12.359 -12.354,-32.394 0,-44.748 12.354,-12.359 32.391,-12.359 44.75,0 l 194.287,194.284 c 6.177,6.18 9.262,14.271 9.262,22.366 0,8.099 -3.091,16.196 -9.267,22.373 z"
   id="path5"
   inkscape:connector-curvature="0"
   style="fill:#ffffff" />
</g>
<g
   id="g7"
   transform="translate(2.6865637e-7,-333.14118)">
</g>
<g
   id="g9"
   transform="translate(2.6865637e-7,-333.14118)">
</g>
<g
   id="g11"
   transform="translate(2.6865637e-7,-333.14118)">
</g>
<g
   id="g13"
   transform="translate(2.6865637e-7,-333.14118)">
</g>
<g
   id="g15"
   transform="translate(2.6865637e-7,-333.14118)">
</g>
<g
   id="g17"
   transform="translate(2.6865637e-7,-333.14118)">
</g>
<g
   id="g19"
   transform="translate(2.6865637e-7,-333.14118)">
</g>
<g
   id="g21"
   transform="translate(2.6865637e-7,-333.14118)">
</g>
<g
   id="g23"
   transform="translate(2.6865637e-7,-333.14118)">
</g>
<g
   id="g25"
   transform="translate(2.6865637e-7,-333.14118)">
</g>
<g
   id="g27"
   transform="translate(2.6865637e-7,-333.14118)">
</g>
<g
   id="g29"
   transform="translate(2.6865637e-7,-333.14118)">
</g>
<g
   id="g31"
   transform="translate(2.6865637e-7,-333.14118)">
</g>
<g
   id="g33"
   transform="translate(2.6865637e-7,-333.14118)">
</g>
<g
   id="g35"
   transform="translate(2.6865637e-7,-333.14118)">
</g>
</svg>