<?xml version="1.0" encoding="UTF-8" standalone="no"?>
<svg
   xmlns:dc="http://purl.org/dc/elements/1.1/"
   xmlns:cc="http://creativecommons.org/ns#"
   xmlns:rdf="http://www.w3.org/1999/02/22-rdf-syntax-ns#"
   xmlns:svg="http://www.w3.org/2000/svg"
   xmlns="http://www.w3.org/2000/svg"
   xmlns:sodipodi="http://sodipodi.sourceforge.net/DTD/sodipodi-0.dtd"
   xmlns:inkscape="http://www.inkscape.org/namespaces/inkscape"
   width="209.59441"
   height="209.59441"
   viewBox="0 0 167.67552 167.67552"
   version="1.1"
   id="svg2"
   inkscape:version="0.48.4 r9939"
   sodipodi:docname="ic_launcher.svg">
  <metadata
     id="metadata66">
    <rdf:RDF>
      <cc:Work
         rdf:about="">
        <dc:format>image/svg+xml</dc:format>
        <dc:type
           rdf:resource="http://purl.org/dc/dcmitype/StillImage" />
        <dc:title></dc:title>
      </cc:Work>
    </rdf:RDF>
  </metadata>
  <defs
     id="defs64">
    <clipPath
       clipPathUnits="userSpaceOnUse"
       id="clipPath3881">
      <path
         sodipodi:type="arc"
         style="color:#000000;fill:#33cfe8;fill-opacity:1;stroke:none;stroke-width:1px;marker:none;visibility:visible;display:inline;overflow:visible;enable-background:accumulate"
         id="path3883"
         sodipodi:cx="113.25"
         sodipodi:cy="117"
         sodipodi:rx="122.25"
         sodipodi:ry="121.5"
         d="M 235.5,117 A 122.25,121.5 0 1 1 -9,117 122.25,121.5 0 1 1 235.5,117 z"
         transform="matrix(0.68578947,0,0,0.69002274,18.156099,15.439883)" />
    </clipPath>
  </defs>
  <sodipodi:namedview
     pagecolor="#ffffff"
     bordercolor="#666666"
     borderopacity="1"
     objecttolerance="10"
     gridtolerance="10"
     guidetolerance="10"
     inkscape:pageopacity="0"
     inkscape:pageshadow="2"
     inkscape:window-width="1920"
     inkscape:window-height="1137"
     id="namedview62"
     showgrid="false"
     fit-margin-top="0"
     fit-margin-left="0"
     fit-margin-right="0"
     fit-margin-bottom="0"
     inkscape:zoom="2.8284271"
     inkscape:cx="103.15964"
     inkscape:cy="163.93483"
     inkscape:window-x="1912"
     inkscape:window-y="-8"
     inkscape:window-maximized="1"
     inkscape:current-layer="svg2" />
  <path
     d="m 0,-24.324475 192,0 0,192.000005 -192,0 0,-192.000005 z"
     id="path4"
     inkscape:connector-curvature="0"
     style="fill:#ffffff" />
  <g
     id="g3851"
     transform="translate(-11.983994,-12.334781)"
     clip-path="url(#clipPath3881)">
    <path
       id="path6"
       d="m 13.14,24.23 c 2.7,-7.19 10.03,-12.51 17.81,-12.22 41.34,-0.03 82.67,0.01 124.01,-0.02 3.26,0.02 6.55,-0.14 9.81,0.3 8.27,1.43 15.17,9.1 15.18,17.61 0.12,16.07 0.03,32.15 0.04,48.23 -11.12,-7.87 -21.93,-16.15 -32.97,-24.1 -2.37,-1.68 -4.5,-3.65 -6.68,-5.56 -0.89,-0.29 -2.68,-0.86 -3.57,-1.14 -1,5.39 -0.3,10.9 -0.73,16.33 -4.93,0.03 -9.87,-0.15 -14.8,0.2 0.27,-10.02 -0.63,-20.02 -0.74,-30.04 -1.57,-0.65 -3.14,-1.31 -4.71,-1.96 -0.1,-2.06 -0.19,-4.13 -0.28,-6.19 -1.4,0.13 -2.8,0.23 -4.17,0.5 -0.46,1.88 -0.7,3.8 -0.98,5.71 -1.56,0.71 -3.13,1.41 -4.7,2.11 -0.56,9.96 -0.04,19.93 -0.33,29.88 -5.29,-0.38 -10.6,-0.16 -15.9,-0.22 -0.02,-9.46 -0.16,-18.93 0.12,-28.39 -6.47,-1.03 -13.04,-0.48 -19.57,-0.62 -1.65,-0.03 -4.37,-0.09 -4.2,2.29 -0.3,8.9 -0.01,17.81 -0.07,26.72 -3.81,0.02 -7.63,0.02 -11.44,0 -0.13,-4.87 0.41,-9.79 -0.28,-14.63 -0.84,-3.45 -4.87,-0.81 -4.29,1.88 -0.3,35.93 0.26,71.9 -0.27,107.83 1.42,1.04 3.11,1.29 4.84,1.19 7.98,6.74 16.29,13.08 24.07,20.05 -16.16,0.03 -32.32,0.08 -48.48,-0.02 -7.46,-0.03 -14.22,-5.37 -16.77,-12.24 -1.45,-3.71 -1.03,-7.77 -1.1,-11.66 0.02,-40.03 0.02,-80.05 0,-120.08 0.07,-3.92 -0.35,-8.01 1.15,-11.74 z"
       inkscape:connector-curvature="0"
       style="fill:#33cfe8" />
    <path
       id="path8"
       d="m 110.62,22.48 c 1.69,-0.05 3.38,-0.09 5.07,-0.13 0.03,0.62 0.09,1.85 0.12,2.46 -1.86,-0.05 -3.72,-0.1 -5.58,-0.15 0.1,-0.54 0.29,-1.64 0.39,-2.18 z"
       inkscape:connector-curvature="0"
       style="fill:#88fcc0" />
    <path
       id="path10"
       d="m 69.72,24.96 c 5.18,-0.37 10.41,-0.37 15.59,-0.01 0.16,0.59 0.5,1.78 0.67,2.37 -5.64,0 -11.27,0.02 -16.91,0.08 0.16,-0.61 0.49,-1.83 0.65,-2.44 z"
       inkscape:connector-curvature="0"
       style="fill:#1ca5bb" />
    <path
       id="path12"
       d="m 111.34,26.17 c 1.37,-0.27 2.77,-0.37 4.17,-0.5 0.09,2.06 0.18,4.13 0.28,6.19 1.57,0.65 3.14,1.31 4.71,1.96 0.11,10.02 1.01,20.02 0.74,30.04 -5.29,0.6 -10.62,0.62 -15.91,0.01 0.29,-9.95 -0.23,-19.92 0.33,-29.88 1.57,-0.7 3.14,-1.4 4.7,-2.11 0.28,-1.91 0.52,-3.83 0.98,-5.71 z"
       inkscape:connector-curvature="0"
       style="fill:#88fcc0" />
    <path
       id="path14"
       d="m 66.13,33.13 c 1.18,-2.06 2.1,-5.07 4.89,-5.34 4.34,-0.31 8.71,-0.17 13.06,-0.08 2.99,-0.07 3.74,3.41 5.1,5.41 -7.69,0.11 -15.37,0.1 -23.05,0.01 z"
       inkscape:connector-curvature="0"
       style="fill:#1c6aac" />
    <path
       id="path16"
       d="m 65.78,36.93 c -0.17,-2.38 2.55,-2.32 4.2,-2.29 6.53,0.14 13.1,-0.41 19.57,0.62 -0.28,9.46 -0.14,18.93 -0.12,28.39 -7.91,-0.03 -15.81,-0.03 -23.72,0 0.06,-8.91 -0.23,-17.82 0.07,-26.72 z"
       inkscape:connector-curvature="0"
       style="fill:#1c6aac" />
    <path
       id="path18"
       d="m 111.43,40.52 c 3.14,-1.4 6.79,1.46 6.04,4.83 -0.44,4.3 -7.35,4.55 -8.46,0.57 -0.99,-2.08 0.52,-4.49 2.42,-5.4 z"
       inkscape:connector-curvature="0"
       style="fill:#33cfe8" />
    <path
       id="path20"
       d="m 73.37,45.36 c 3.3,-1.25 7.1,-0.59 10.05,1.23 1.97,1.25 3.04,4.12 1.35,6.05 -2.04,3.35 -6.42,3.27 -9.86,3.02 -2.78,-0.09 -5.55,-1.9 -6.31,-4.66 -0.23,-2.87 2.18,-5 4.77,-5.64 z"
       inkscape:connector-curvature="0"
       style="fill:#33cfe8" />
    <path
       id="path22"
       d="m 49.7,50.9 c -0.58,-2.69 3.45,-5.33 4.29,-1.88 0.69,4.84 0.15,9.76 0.28,14.63 3.81,0.02 7.63,0.02 11.44,0 7.91,-0.03 15.81,-0.03 23.72,0 5.3,0.06 10.61,-0.16 15.9,0.22 5.29,0.61 10.62,0.59 15.91,-0.01 4.93,-0.35 9.87,-0.17 14.8,-0.2 0.43,-5.43 -0.27,-10.94 0.73,-16.33 0.89,0.28 2.68,0.85 3.57,1.14 0.19,37.05 -0.03,74.11 0.1,111.17 -1.33,0.2 -2.89,1.16 -3.92,-0.2 -0.53,-4.59 -0.06,-9.24 -0.83,-13.81 -27.1,0.1 -54.19,0.06 -81.29,0.02 -0.14,4.76 -0.17,9.52 -0.13,14.27 -1.73,0.1 -3.42,-0.15 -4.84,-1.19 C 49.96,122.8 49.4,86.83 49.7,50.9 z"
       inkscape:connector-curvature="0"
       style="fill:#ffffff" />
    <path
       id="path24"
       d="m 140.34,48.47 c 2.18,1.91 4.31,3.88 6.68,5.56 11.04,7.95 21.85,16.23 32.97,24.1 0,27.98 0.06,55.97 -0.03,83.95 0.05,9.45 -8.48,17.93 -17.91,17.88 -27.9,0.08 -55.81,0.05 -83.71,0.01 -7.78,-6.97 -16.09,-13.31 -24.07,-20.05 -0.04,-4.75 -0.01,-9.51 0.13,-14.27 27.1,0.04 54.19,0.08 81.29,-0.02 0.77,4.57 0.3,9.22 0.83,13.81 1.03,1.36 2.59,0.4 3.92,0.2 -0.13,-37.06 0.09,-74.12 -0.1,-111.17 z"
       inkscape:connector-curvature="0"
       style="fill:#1ca5bb" />
    <path
       id="path26"
       d="m 54.3,68.36 c 27.14,-0.05 54.27,0.06 81.4,-0.05 1.02,5.5 0.26,11.08 0.49,16.63 -0.02,5.91 0.44,11.86 -0.47,17.73 -13.46,-0.09 -26.93,-0.23 -40.39,0.11 1.08,-2.12 2.7,-4.33 2.03,-6.84 -1.15,-4.53 -5.51,-6.98 -9.34,-9.01 -0.16,1.75 -0.32,3.5 -0.46,5.26 -1.1,-2.11 -1.97,-4.4 -3.59,-6.17 -2.35,-1.6 -5.38,-1.4 -8.07,-1.81 0.58,2.64 1.28,5.26 2.13,7.83 -0.13,0.13 -0.4,0.4 -0.53,0.53 -2.19,-2.39 -4.1,-5.1 -6.68,-7.08 -2.53,-0.59 -4.94,0.76 -7.28,1.5 1.75,2.64 3.38,5.36 4.82,8.18 -3.02,-1.62 -5.95,-3.39 -8.87,-5.17 -1.16,2.49 -2.72,5.19 -1.77,8.02 0.9,2.01 2.72,3.38 4.26,4.89 -2.56,-0.25 -5.12,-0.31 -7.68,-0.34 -0.04,-11.4 -0.04,-22.81 0,-34.21 z"
       inkscape:connector-curvature="0"
       style="fill:#33cfe8" />
    <path
       id="path28"
       d="m 120.48,71.5 c 1.5,-0.05 3,-0.1 4.5,-0.14 -0.22,1.01 -0.44,2.01 -0.66,3.02 -1.24,-0.01 -2.49,-0.03 -3.73,-0.05 -0.04,-0.95 -0.08,-1.89 -0.11,-2.83 z"
       inkscape:connector-curvature="0"
       style="fill:#cf7f03" />
    <path
       id="path30"
       d="m 113.28,77.51 c -0.41,-2.7 2.5,-2.59 4.18,-3.09 0.26,0.37 0.79,1.13 1.06,1.5 -0.23,0.42 -0.69,1.24 -0.92,1.65 -1.44,0 -2.88,-0.02 -4.32,-0.06 z"
       inkscape:connector-curvature="0"
       style="fill:#cf7f03" />
    <path
       id="path32"
       d="m 119.67,77.88 c 1.3,-0.05 2.61,-0.1 3.92,-0.14 -0.09,1.12 0.07,2.32 -0.48,3.36 -1.24,0.2 -2.5,0.24 -3.75,0.33 0.09,-1.18 0.19,-2.37 0.31,-3.55 z"
       inkscape:connector-curvature="0"
       style="fill:#cf7f03" />
    <path
       id="path34"
       d="m 112.68,81.34 0.01,0.06 c 0,0.33 0.02,0.99 0.03,1.32 1.15,0.48 2.32,0.89 3.52,1.25 l -0.18,0.72 c 1.25,0.26 2.49,0.56 3.73,0.89 l -0.08,0.02 c -2.21,0.34 -4.33,1.06 -6.48,1.68 0.8,-0.89 1.62,-1.77 2.4,-2.68 -0.83,-0.26 -2.48,-0.76 -3.31,-1.02 0.09,-0.56 0.27,-1.68 0.36,-2.24 z"
       inkscape:connector-curvature="0"
       style="fill:#88fcc0" />
    <path
       id="path36"
       d="m 112.69,81.4 c 1.59,-0.6 3.25,-0.85 4.99,-0.75 -0.36,0.83 -1.08,2.49 -1.44,3.32 -1.2,-0.36 -2.37,-0.77 -3.52,-1.25 -0.01,-0.33 -0.03,-0.99 -0.03,-1.32 z"
       inkscape:connector-curvature="0"
       style="fill:#cf7f03" />
    <path
       id="path38"
       d="m 75.9,84.21 c 2.69,0.41 5.72,0.21 8.07,1.81 1.62,1.77 2.49,4.06 3.59,6.17 0.14,-1.76 0.3,-3.51 0.46,-5.26 3.83,2.03 8.19,4.48 9.34,9.01 0.67,2.51 -0.95,4.72 -2.03,6.84 -11.11,-0.18 -22.25,-0.37 -33.35,0.13 -1.54,-1.51 -3.36,-2.88 -4.26,-4.89 -0.95,-2.83 0.61,-5.53 1.77,-8.02 2.92,1.78 5.85,3.55 8.87,5.17 -1.44,-2.82 -3.07,-5.54 -4.82,-8.18 2.34,-0.74 4.75,-2.09 7.28,-1.5 2.58,1.98 4.49,4.69 6.68,7.08 0.13,-0.13 0.4,-0.4 0.53,-0.53 -0.85,-2.57 -1.55,-5.19 -2.13,-7.83 z"
       inkscape:connector-curvature="0"
       style="fill:#acf0f2" />
    <path
       id="path40"
       d="m 113.23,87.28 c 2.15,-0.62 4.27,-1.34 6.48,-1.68 l 0.76,0.14 0.5,0.36 c 2.63,1.55 5.53,2.56 8.17,4.09 -7.09,0.04 -14.18,0.24 -21.26,-0.05 l -1.34,-0.53 c 2.17,-0.94 4.42,-1.68 6.69,-2.33 z"
       inkscape:connector-curvature="0"
       style="fill:#cf7f03" />
    <path
       id="path42"
       d="m 101.35,90.37 c 2.17,-0.08 4.35,-0.23 6.53,-0.23 7.08,0.29 14.17,0.09 21.26,0.05 1.47,0.05 2.95,0.17 4.42,0.27 -1.49,5.86 -6.48,10.66 -12.57,11.32 -4.35,0.24 -9.13,0.62 -12.89,-2.01 -3.55,-1.95 -6.05,-5.4 -6.75,-9.4 z"
       inkscape:connector-curvature="0"
       style="fill:#ffbb2a" />
    <path
       id="path44"
       d="m 54.37,141.47 c -0.07,-11.59 -0.33,-23.2 0.14,-34.78 24.49,0.16 48.98,-0.04 73.48,0.01 2.79,0.02 5.55,0.51 8.3,0.94 -0.45,11.28 0.7,22.65 -0.64,33.86 -10.79,-0.15 -21.58,-0.02 -32.37,-0.07 -0.1,-7.24 0.63,-14.54 -0.6,-21.72 -1.36,-0.51 -2.71,-1.02 -4.07,-1.53 -0.03,-2.7 -0.06,-5.41 -0.09,-8.11 -1.15,0.15 -2.29,0.34 -3.42,0.56 -0.59,2.53 -0.41,5.14 -0.41,7.72 -1.36,0.52 -2.72,1.03 -4.08,1.55 -0.58,7.16 -0.27,14.35 -0.27,21.53 -3.24,0.01 -6.49,0.01 -9.73,0 0.01,-7.01 0.08,-14.01 0.06,-21.02 -6.74,-0.07 -13.48,-0.06 -20.22,-0.01 -0.02,7 -0.09,14.01 -0.07,21.01 -2,0.02 -4,0.04 -6.01,0.06 z"
       inkscape:connector-curvature="0"
       style="fill:#33cfe8" />
    <path
       id="path46"
       d="m 95.1,110.63 c 1.13,-0.22 2.27,-0.41 3.42,-0.56 0.03,2.7 0.06,5.41 0.09,8.11 1.36,0.51 2.71,1.02 4.07,1.53 1.23,7.18 0.5,14.48 0.6,21.72 -4.31,0.01 -8.62,0.01 -12.94,0 0,-7.18 -0.31,-14.37 0.27,-21.53 1.36,-0.52 2.72,-1.03 4.08,-1.55 0,-2.58 -0.18,-5.19 0.41,-7.72 z"
       inkscape:connector-curvature="0"
       style="fill:#1c6aac" />
    <path
       id="path48"
       d="m 63.36,111.39 c 5.02,0.02 10.03,-0.01 15.04,0.05 -0.01,0.66 -0.04,1.99 -0.06,2.66 1,1.38 1.99,2.77 2.96,4.18 -7.09,0.18 -14.19,0.22 -21.27,-0.04 1.18,-1.4 2.38,-2.79 3.61,-4.14 -0.07,-0.68 -0.21,-2.04 -0.28,-2.71 z"
       inkscape:connector-curvature="0"
       style="fill:#ff8585" />
    <path
       id="path50"
       d="m 116.67,113.47 c 1.55,-0.01 3.19,-0.34 4.68,0.25 5.03,2.26 9.58,5.72 12.61,10.38 -0.14,0.55 -0.42,1.67 -0.56,2.22 -0.4,0.01 -1.2,0.02 -1.6,0.03 -1.31,-0.85 -2.84,-1.13 -4.37,-1.26 0.04,1.37 0.08,2.73 0.13,4.1 -3.56,2.17 -7.4,4.23 -11.72,3.48 -0.17,1.16 -0.35,2.32 -0.52,3.49 -1.66,0.64 -3.31,1.29 -4.97,1.93 1.79,-6.21 3.79,-12.35 5.37,-18.61 0.56,-0.06 1.69,-0.17 2.26,-0.23 0.42,-0.55 1.26,-1.67 1.68,-2.23 -1.01,-1.18 -2.01,-2.36 -2.99,-3.55 z"
       inkscape:connector-curvature="0"
       style="fill:#ffffff" />
    <path
       id="path52"
       d="m 122.56,120.32 c -1.09,-2.45 1.8,-1.77 3.01,-2.34 0,0.73 -0.01,2.19 -0.01,2.93 -1.01,-0.17 -2.01,-0.37 -3,-0.59 z"
       inkscape:connector-curvature="0"
       style="fill:#33cfe8" />
    <path
       id="path54"
       d="m 60.45,120.4 c 6.74,-0.05 13.48,-0.06 20.22,0.01 0.02,7.01 -0.05,14.01 -0.06,21.02 -6.74,0 -13.48,0.03 -20.23,-0.02 -0.02,-7 0.05,-14.01 0.07,-21.01 z"
       inkscape:connector-curvature="0"
       style="fill:#ff8585" />
    <path
       id="path56"
       d="m 117.32,125.24 c 1.07,0.04 2.13,0.07 3.2,0.12 0,0.56 -0.01,1.68 -0.01,2.24 -1.05,0.03 -2.1,0.07 -3.15,0.11 -0.01,-0.62 -0.03,-1.85 -0.04,-2.47 z"
       inkscape:connector-curvature="0"
       style="fill:#33cfe8" />
    <path
       id="path58"
       d="m 68.86,125.56 c 3.46,-0.44 7.34,0.56 9.41,3.54 1.39,2.77 -1.99,4.51 -4.13,5.29 -3.59,0.37 -7.94,1 -10.8,-1.75 -1.62,-1.11 -1.45,-3.95 0.14,-5 1.58,-1.11 3.45,-1.88 5.38,-2.08 z"
       inkscape:connector-curvature="0"
       style="fill:#33cfe8" />
    <path
       id="path60"
       d="m 92.05,129.15 c 1.94,-0.67 3.89,-1.94 6.03,-1.5 1.67,0.58 2.81,1.99 4.08,3.13 -2.22,1.88 -5.19,3.62 -8.09,2.05 -1.76,-0.37 -1.59,-2.34 -2.02,-3.68 z"
       inkscape:connector-curvature="0"
       style="fill:#33cfe8" />
  </g>
</svg>
