<?xml version="1.0" encoding="UTF-8" standalone="no"?>
<!-- Generator: Adobe Illustrator 19.1.0, SVG Export Plug-In . SVG Version: 6.00 Build 0)  -->

<svg
   xmlns:dc="http://purl.org/dc/elements/1.1/"
   xmlns:cc="http://creativecommons.org/ns#"
   xmlns:rdf="http://www.w3.org/1999/02/22-rdf-syntax-ns#"
   xmlns:svg="http://www.w3.org/2000/svg"
   xmlns="http://www.w3.org/2000/svg"
   xmlns:sodipodi="http://sodipodi.sourceforge.net/DTD/sodipodi-0.dtd"
   xmlns:inkscape="http://www.inkscape.org/namespaces/inkscape"
   version="1.1"
   id="Capa_1"
   x="0px"
   y="0px"
   viewBox="0 0 529.578 529.578"
   style="enable-background:new 0 0 529.578 529.578;"
   xml:space="preserve"
   inkscape:version="0.48.4 r9939"
   width="100%"
   height="100%"
   sodipodi:docname="arrow.svg"><metadata
   id="metadata4066"><rdf:RDF><cc:Work
       rdf:about=""><dc:format>image/svg+xml</dc:format><dc:type
         rdf:resource="http://purl.org/dc/dcmitype/StillImage" /></cc:Work></rdf:RDF></metadata><defs
   id="defs4064"><filter
     id="filter4068"
     style="color-interpolation-filters:sRGB;"
     inkscape:label="Drop Shadow"><feFlood
       id="feFlood4070"
       flood-opacity="0.5"
       flood-color="rgb(0,0,0)"
       result="flood" /><feComposite
       id="feComposite4072"
       in2="SourceGraphic"
       in="flood"
       operator="in"
       result="composite1" /><feGaussianBlur
       id="feGaussianBlur4074"
       in="composite"
       stdDeviation="2"
       result="blur" /><feOffset
       id="feOffset4076"
       dx="4"
       dy="4"
       result="offset" /><feComposite
       id="feComposite4078"
       in2="offset"
       in="SourceGraphic"
       operator="over"
       result="composite2" /></filter></defs><sodipodi:namedview
   pagecolor="#ffffff"
   bordercolor="#666666"
   borderopacity="1"
   objecttolerance="10"
   gridtolerance="10"
   guidetolerance="10"
   inkscape:pageopacity="0"
   inkscape:pageshadow="2"
   inkscape:window-width="1920"
   inkscape:window-height="1137"
   id="namedview4062"
   showgrid="false"
   inkscape:zoom="0.44563785"
   inkscape:cx="264.789"
   inkscape:cy="264.789"
   inkscape:window-x="1912"
   inkscape:window-y="-8"
   inkscape:window-maximized="1"
   inkscape:current-layer="Capa_1" />
<g
   id="g4024"
   style="fill:#ffffff;filter:url(#filter4068)">
	<g
   id="g4026"
   style="fill:#ffffff">
		<path
   d="M266.032,529.578c146.691,0,263.546-119.342,263.546-263.546S410.237,0,266.032,0S0,119.342,0,266.032    S119.342,529.578,266.032,529.578z M266.032,24.863c131.773,0,238.683,106.91,238.683,238.683s-106.91,238.683-238.683,238.683    S27.349,395.319,27.349,263.546S134.259,24.863,266.032,24.863z"
   id="path4028"
   style="fill:#ffffff" />
		<path
   d="M261.06,348.08c2.486,2.486,4.973,2.486,7.459,2.486s4.973,0,7.459-2.486L407.75,228.738    c4.973-4.973,4.973-12.431,0-17.404c-4.973-4.973-12.431-4.973-17.404,0L266.032,323.217L141.718,211.334    c-4.973-4.973-12.431-4.973-17.404,0c-4.973,4.973-4.973,12.431,0,17.404L261.06,348.08z"
   id="path4030"
   style="fill:#ffffff" />
	</g>
</g>
<g
   id="g4032">
</g>
<g
   id="g4034">
</g>
<g
   id="g4036">
</g>
<g
   id="g4038">
</g>
<g
   id="g4040">
</g>
<g
   id="g4042">
</g>
<g
   id="g4044">
</g>
<g
   id="g4046">
</g>
<g
   id="g4048">
</g>
<g
   id="g4050">
</g>
<g
   id="g4052">
</g>
<g
   id="g4054">
</g>
<g
   id="g4056">
</g>
<g
   id="g4058">
</g>
<g
   id="g4060">
</g>
</svg>