<?xml version="1.0" encoding="UTF-8" standalone="no"?>
<!-- Generator: Adobe Illustrator 18.0.0, SVG Export Plug-In . SVG Version: 6.00 Build 0)  -->

<svg
   xmlns:dc="http://purl.org/dc/elements/1.1/"
   xmlns:cc="http://creativecommons.org/ns#"
   xmlns:rdf="http://www.w3.org/1999/02/22-rdf-syntax-ns#"
   xmlns:svg="http://www.w3.org/2000/svg"
   xmlns="http://www.w3.org/2000/svg"
   xmlns:sodipodi="http://sodipodi.sourceforge.net/DTD/sodipodi-0.dtd"
   xmlns:inkscape="http://www.inkscape.org/namespaces/inkscape"
   version="1.1"
   id="Capa_1"
   x="0px"
   y="0px"
   viewBox="0 0 382.117 382.117"
   style="enable-background:new 0 0 382.117 382.117;"
   xml:space="preserve"
   inkscape:version="0.48.4 r9939"
   width="100%"
   height="100%"
   sodipodi:docname="email.svg"><metadata
   id="metadata39"><rdf:RDF><cc:Work
       rdf:about=""><dc:format>image/svg+xml</dc:format><dc:type
         rdf:resource="http://purl.org/dc/dcmitype/StillImage" /></cc:Work></rdf:RDF></metadata><defs
   id="defs37" /><sodipodi:namedview
   pagecolor="#ffffff"
   bordercolor="#666666"
   borderopacity="1"
   objecttolerance="10"
   gridtolerance="10"
   guidetolerance="10"
   inkscape:pageopacity="0"
   inkscape:pageshadow="2"
   inkscape:window-width="1920"
   inkscape:window-height="1137"
   id="namedview35"
   showgrid="false"
   inkscape:zoom="2.4704475"
   inkscape:cx="230.43853"
   inkscape:cy="177.10516"
   inkscape:window-x="1912"
   inkscape:window-y="-8"
   inkscape:window-maximized="1"
   inkscape:current-layer="Capa_1" />
<path
   sodipodi:type="arc"
   style="color:#000000;fill:#999999;stroke:none;stroke-width:1px;marker:none;visibility:visible;display:inline;overflow:visible;enable-background:accumulate"
   id="path3016"
   sodipodi:cx="191.0585"
   sodipodi:cy="191.86807"
   sodipodi:rx="192.67764"
   sodipodi:ry="191.86807"
   d="m 383.73243,190.67593 a 192.67764,191.86807 0 1 1 -0.0199,-1.81366"
   sodipodi:start="6.2769719"
   sodipodi:end="12.550704"
   sodipodi:open="true" /><path
   d="M 296.63325,86.722273 H 85.484473 c -18.1202,0 -32.86243,14.157497 -32.86243,31.558917 v 147.17376 c 0,17.40142 14.74223,31.55892 32.86243,31.55892 H 296.63325 c 18.12021,0 32.86171,-14.1575 32.86171,-31.55892 V 118.28119 c 0,-17.40142 -14.7415,-31.558917 -32.86171,-31.558917 z m 0,182.430187 H 85.484473 c -2.66354,0 -4.99958,-1.72739 -4.99958,-3.69751 V 137.74259 l 95.496987,80.6236 c 1.95781,1.65348 4.44745,2.56355 7.011,2.56355 l 16.12835,7.2e-4 c 2.5621,0 5.05319,-0.91079 7.01172,-2.56427 l 95.50133,-80.6265 V 265.4564 c -10e-4,1.96867 -2.33821,3.69606 -5.00103,3.69606 z M 191.05887,193.26542 98.176158,114.58368 H 283.94157 l -92.8827,78.68174 z"
   id="path3"
   inkscape:connector-curvature="0"
   style="fill:#e6e6e6" />
<g
   id="g5">
</g>
<g
   id="g7">
</g>
<g
   id="g9">
</g>
<g
   id="g11">
</g>
<g
   id="g13">
</g>
<g
   id="g15">
</g>
<g
   id="g17">
</g>
<g
   id="g19">
</g>
<g
   id="g21">
</g>
<g
   id="g23">
</g>
<g
   id="g25">
</g>
<g
   id="g27">
</g>
<g
   id="g29">
</g>
<g
   id="g31">
</g>
<g
   id="g33">
</g>
</svg>