<?xml version="1.0" encoding="UTF-8" standalone="no"?>
<!-- Generator: Adobe Illustrator 19.0.0, SVG Export Plug-In . SVG Version: 6.00 Build 0)  -->

<svg
   xmlns:dc="http://purl.org/dc/elements/1.1/"
   xmlns:cc="http://creativecommons.org/ns#"
   xmlns:rdf="http://www.w3.org/1999/02/22-rdf-syntax-ns#"
   xmlns:svg="http://www.w3.org/2000/svg"
   xmlns="http://www.w3.org/2000/svg"
   xmlns:sodipodi="http://sodipodi.sourceforge.net/DTD/sodipodi-0.dtd"
   xmlns:inkscape="http://www.inkscape.org/namespaces/inkscape"
   version="1.1"
   id="Capa_1"
   x="0px"
   y="0px"
   viewBox="0 0 486.392 486.392"
   style="enable-background:new 0 0 486.392 486.392;"
   xml:space="preserve"
   inkscape:version="0.48.4 r9939"
   width="100%"
   height="100%"
   sodipodi:docname="linkedin.svg"><metadata
   id="metadata75"><rdf:RDF><cc:Work
       rdf:about=""><dc:format>image/svg+xml</dc:format><dc:type
         rdf:resource="http://purl.org/dc/dcmitype/StillImage" /></cc:Work></rdf:RDF></metadata><defs
   id="defs73">
	
	
	
	
	
	
	
	
	
	
	
	
	
	
	
	
</defs><sodipodi:namedview
   pagecolor="#ffffff"
   bordercolor="#666666"
   borderopacity="1"
   objecttolerance="10"
   gridtolerance="10"
   guidetolerance="10"
   inkscape:pageopacity="0"
   inkscape:pageshadow="2"
   inkscape:window-width="1920"
   inkscape:window-height="1137"
   id="namedview71"
   showgrid="false"
   inkscape:zoom="1.372368"
   inkscape:cx="178.39126"
   inkscape:cy="321.77664"
   inkscape:window-x="1912"
   inkscape:window-y="-8"
   inkscape:window-maximized="1"
   inkscape:current-layer="Capa_1" />
<g
   style="fill:#999999"
   id="g5">
		<g
   style="fill:#999999"
   id="g7">
			<path
   inkscape:connector-curvature="0"
   id="path9"
   d="M 243.196,0 C 108.891,0 0,108.891 0,243.196 0,377.501 108.891,486.392 243.196,486.392 377.501,486.392 486.392,377.501 486.392,243.196 486.392,108.861 377.501,0 243.196,0 z M 182.397,360.994 H 121.598 V 148.197 h 60.799 V 360.994 z M 153.882,135.156 c -15.747,0 -28.484,-12.768 -28.484,-28.515 0,-15.747 12.768,-28.515 28.484,-28.515 15.747,0.03 28.515,12.798 28.515,28.515 0,15.747 -12.768,28.515 -28.515,28.515 z M 395.193,360.994 H 334.394 V 229.425 c 0,-15.413 -4.408,-26.204 -23.347,-26.204 -31.403,0 -37.452,26.204 -37.452,26.204 V 360.994 H 212.796 V 148.197 h 60.799 v 20.337 c 8.694,-6.657 30.399,-20.307 60.799,-20.307 19.699,0 60.799,11.795 60.799,83.051 v 129.716 z"
   style="fill:#999999" />
		</g>
	</g><g
   style="fill:#999999"
   id="g11">
	</g><g
   style="fill:#999999"
   id="g13">
	</g><g
   style="fill:#999999"
   id="g15">
	</g><g
   style="fill:#999999"
   id="g17">
	</g><g
   style="fill:#999999"
   id="g19">
	</g><g
   style="fill:#999999"
   id="g21">
	</g><g
   style="fill:#999999"
   id="g23">
	</g><g
   style="fill:#999999"
   id="g25">
	</g><g
   style="fill:#999999"
   id="g27">
	</g><g
   style="fill:#999999"
   id="g29">
	</g><g
   style="fill:#999999"
   id="g31">
	</g><g
   style="fill:#999999"
   id="g33">
	</g><g
   style="fill:#999999"
   id="g35">
	</g><g
   style="fill:#999999"
   id="g37">
	</g><g
   style="fill:#999999"
   id="g39">
	</g>
<g
   id="g41">
</g>
<g
   id="g43">
</g>
<g
   id="g45">
</g>
<g
   id="g47">
</g>
<g
   id="g49">
</g>
<g
   id="g51">
</g>
<g
   id="g53">
</g>
<g
   id="g55">
</g>
<g
   id="g57">
</g>
<g
   id="g59">
</g>
<g
   id="g61">
</g>
<g
   id="g63">
</g>
<g
   id="g65">
</g>
<g
   id="g67">
</g>
<g
   id="g69">
</g>
<path
   style="fill:#e6e6e6;fill-opacity:0.53439152;stroke:none"
   d="m 122.28386,254.6058 0,-106.02113 29.87537,0 29.87537,0 0,106.02113 0,106.02113 -29.87537,0 -29.87537,0 0,-106.02113 z"
   id="path3057"
   inkscape:connector-curvature="0" /><path
   style="fill:#e6e6e6;fill-opacity:0.53439152;stroke:none"
   d="m 147.59374,133.99348 c -15.94249,-4.02515 -25.37836,-20.89545 -20.18684,-36.091883 5.46095,-15.985104 23.00394,-23.587691 38.11336,-16.517141 17.75799,8.309967 21.81718,31.178294 7.9888,45.006674 -6.50294,6.50294 -17.49648,9.72793 -25.91532,7.60235 z"
   id="path3059"
   inkscape:connector-curvature="0" /><path
   style="fill:#e6e6e6;fill-opacity:0.53439152;stroke:none"
   d="m 213.36731,254.6058 0,-106.02113 29.85536,0 29.85536,0 0.20218,10.2078 0.20217,10.2078 5.07066,-3.40287 c 5.65581,-3.79558 17.35872,-9.5107 24.16829,-11.80261 11.71651,-3.94344 28.62811,-5.92285 38.66663,-4.52571 29.97697,4.17211 48.47697,27.53724 52.65834,66.50645 0.47127,4.39215 0.75923,33.20297 0.75923,75.9636 l 0,68.8878 -29.87537,0 -29.87537,0 -0.013,-65.03358 c -0.007,-35.76847 -0.31136,-67.8689 -0.67609,-71.33429 -1.60458,-15.2455 -8.13073,-21.03888 -23.67141,-21.01355 -12.62941,0.0206 -21.4312,3.48776 -28.77005,11.33302 -2.34532,2.50715 -5.2042,6.47278 -6.35306,8.81251 l -2.08883,4.25406 -0.19343,66.49091 -0.19343,66.49092 -29.86411,0 -29.8641,0 0,-106.02113 z"
   id="path3061"
   inkscape:connector-curvature="0" /><path
   style="fill:#e6e6e6;fill-opacity:0.53439152000000001;stroke:none"
   d="m 122.28386,254.6058 0,-106.02113 29.87537,0 29.87537,0 0,106.02113 0,106.02113 -29.87537,0 -29.87537,0 0,-106.02113 z"
   id="path3063"
   inkscape:connector-curvature="0" /><path
   style="fill:#e6e6e6;fill-opacity:0.53439152;stroke:none"
   d="m 122.28386,254.6058 0,-106.02113 29.87537,0 29.87537,0 0,106.02113 0,106.02113 -29.87537,0 -29.87537,0 0,-106.02113 z"
   id="path3065"
   inkscape:connector-curvature="0" /><path
   style="fill:#e6e6e6;fill-opacity:0.53439152;stroke:none"
   d="m 147.68249,133.91847 c -0.54355,-0.26613 -3.22928,-1.56487 -5.96829,-2.88609 -5.70588,-2.75235 -9.64546,-6.77921 -12.68251,-12.96347 -1.81433,-3.69448 -2.00952,-4.84586 -1.99145,-11.74696 0.0179,-6.824106 0.22668,-8.044767 1.93205,-11.294343 1.89695,-3.614636 8.43204,-11.526307 9.74908,-11.802665 1.2764,-0.267832 8.70016,-3.496633 8.88351,-3.863687 0.37895,-0.75867 13.06881,0.580836 16.03887,1.693018 8.6629,3.243952 14.01289,9.429316 17.44332,20.167007 0.46274,1.44843 0.47951,9.91161 0.0212,10.68643 -0.19778,0.33435 -0.58871,1.67605 -0.86872,2.98155 -0.69073,3.22033 -5.65342,10.50139 -8.78637,12.89101 -4.72759,3.60591 -10.29422,5.65103 -16.74733,6.15281 -3.31929,0.2581 -6.4798,0.25153 -7.02334,-0.0146 l 0,-10e-6 z"
   id="path3067"
   inkscape:connector-curvature="0" /><path
   style="fill:#e6e6e6;fill-opacity:0.53439152;stroke:none"
   d="m 213.36731,254.6058 0,-106.02113 29.87537,0 29.87537,0 0,9.79401 c 0,5.74333 0.30136,9.98026 0.72866,10.24435 0.40077,0.24769 0.72867,0.10309 0.72867,-0.32133 0,-0.42442 0.29708,-0.77167 0.66017,-0.77167 0.3631,0 3.47574,-1.65715 6.91698,-3.68255 3.44124,-2.0254 8.63649,-4.72029 11.545,-5.98865 2.90852,-1.26836 5.45216,-2.53101 5.65255,-2.80588 0.20038,-0.27488 0.52828,-0.50085 0.72866,-0.50216 1.68499,-0.0111 5.82935,-1.14447 5.82935,-1.59424 0,-0.31164 0.40987,-0.52807 0.91083,-0.48097 0.50096,0.0471 4.18984,-0.55627 8.19751,-1.34084 9.36729,-1.83381 33.86469,-2.0312 33.87927,-0.27298 0.004,0.40884 3.61801,1.51184 5.46878,1.66879 0.40076,0.034 0.89261,0.25449 1.093,0.49001 0.20038,0.23552 2.73435,1.6659 5.63104,3.17862 6.79074,3.54629 13.75028,9.96011 18.4681,17.02001 2.06015,3.08285 4.00732,5.76913 4.32705,5.96952 0.31974,0.20038 0.61684,0.69223 0.66023,1.093 0.15399,1.42243 2.45139,6.92235 2.89178,6.92286 0.24613,2.8e-4 0.49927,0.89193 0.56254,1.98145 0.0632,1.08952 0.47518,2.101 0.91537,2.24773 0.44019,0.14673 0.63201,0.53916 0.42626,0.87206 -0.20575,0.33291 -0.0479,1.46336 0.35089,2.51213 0.93248,2.45262 3.73191,16.02143 3.9915,19.34681 0.1095,1.40269 0.45956,34.9305 0.77792,74.50626 l 0.57883,71.95592 -29.9921,0 -29.9921,0 -0.15042,-55.19657 c -0.21788,-79.94849 -0.25376,-82.5175 -1.20689,-86.40966 -1.97897,-8.08125 -6.03145,-12.67252 -12.98374,-14.70998 -6.8799,-2.01624 -24.18049,-0.68804 -26.93651,2.06797 -0.27466,0.27466 -0.95846,0.49939 -1.51956,0.49939 -1.07506,0 -4.9684,2.65854 -8.47626,5.78797 -4.1006,3.65822 -10.42064,13.15721 -9.41986,14.158 0.2512,0.2512 0.0742,0.45672 -0.39339,0.45672 -0.64151,0 -0.85011,16.36032 -0.85011,66.67308 l 0,66.67308 -29.87537,0 -29.87537,0 0,-106.02113 z"
   id="path3069"
   inkscape:connector-curvature="0" /><path
   style="fill:#e6e6e6;fill-opacity:0.53439152;stroke:none"
   d="m 213.36731,254.6058 0,-106.02113 29.87537,0 29.87537,0 0,9.79401 c 0,5.74333 0.30136,9.98026 0.72866,10.24435 0.40077,0.24769 0.72867,0.10309 0.72867,-0.32133 0,-0.42442 0.26216,-0.77167 0.58258,-0.77167 0.66324,0 21.44809,-10.9587 22.00611,-11.60261 0.20039,-0.23123 0.69224,-0.42386 1.09301,-0.42809 0.40076,-0.004 3.02397,-0.72451 5.82934,-1.60064 2.80537,-0.87613 7.39597,-1.98326 10.20134,-2.46028 5.38941,-0.91642 31.70008,-2.04424 31.69816,-1.35876 -6.2e-4,0.22109 2.15916,1.01977 4.7995,1.77485 13.91976,3.98075 28.8724,17.99886 35.29312,33.08732 1.19557,2.80955 3.18367,9.1405 4.41799,14.06877 2.02561,8.08762 2.30288,10.59306 2.84639,25.71984 0.3312,9.21764 0.82484,43.56521 1.09698,76.32793 l 0.49481,59.56857 -29.93996,0 -29.93996,0 -0.0398,-58.83991 c -0.0569,-84.187 -0.0759,-84.51402 -5.33353,-91.50269 -3.53284,-4.69605 -8.06976,-6.58835 -16.61936,-6.93175 -7.36595,-0.29585 -15.6076,0.75349 -18.78065,2.39119 -1.01956,0.52623 -2.83281,1.40659 -4.02944,1.95637 -5.05333,2.32169 -17.2711,16.8616 -15.9563,18.98898 0.2011,0.32541 0.0184,0.59165 -0.40602,0.59165 -0.5375,0 -0.77167,20.23309 -0.77167,66.67308 l 0,66.67308 -29.87537,0 -29.87537,0 0,-106.02113 z"
   id="path3071"
   inkscape:connector-curvature="0" /><path
   style="fill:#e6e6e6;fill-opacity:0.53439152;stroke:none"
   d="m 122.28386,254.6058 0,-106.02113 29.87537,0 29.87537,0 0,106.02113 0,106.02113 -29.87537,0 -29.87537,0 0,-106.02113 z"
   id="path3073"
   inkscape:connector-curvature="0" /><path
   style="fill:#e6e6e6;fill-opacity:0.53439152;stroke:none"
   d="m 143.06354,131.44408 c -6.31296,-3.17972 -10.72488,-7.43095 -13.52597,-13.03333 -1.96893,-3.93799 -2.15303,-4.9512 -2.15303,-11.84879 0,-8.693961 0.84043,-11.106947 6.22421,-17.870468 2.54469,-3.196827 4.42697,-4.682005 8.19449,-6.465697 6.0755,-2.876379 8.65437,-3.240798 15.46074,-2.184753 6.69841,1.039292 10.58356,2.728388 14.5796,6.338565 3.85371,3.481595 5.85896,6.609486 7.99772,12.475227 5.38654,14.773096 -5.06978,31.307206 -21.77002,34.423976 -6.77205,1.26386 -9.52375,0.92746 -15.00774,-1.83473 z"
   id="path3075"
   inkscape:connector-curvature="0" /><path
   style="fill:#999999;fill-opacity:0.53439152;stroke:none"
   d="m 222.70338,485.19146 c -34.25897,-3.0474 -69.0336,-13.69642 -97.75652,-29.93594 C 64.639712,421.15873 21.704946,363.83003 6.5215552,297.12797 1.9471452,277.03215 1.061073,268.49975 1.0084925,244.04012 0.97701461,229.39709 1.2879416,219.45436 1.9199619,214.89342 6.2403676,183.71542 13.58958,159.53576 26.503414,134.01132 61.620203,64.602321 126.75122,16.664317 203.5702,3.685869 229.83842,-0.75210649 263.88729,-0.25304818 290.24173,4.9562239 353.33306,17.426983 409.78027,55.32383 445.56699,109.23662 c 20.57096,30.9902 33.24043,64.89955 38.52342,103.10646 1.53852,11.12673 2.16481,38.58621 1.14672,50.27806 -4.27946,49.14591 -21.85972,93.53064 -52.23958,131.88883 -3.49151,4.40844 -11.79158,13.45873 -18.4446,20.11175 -6.65303,6.65303 -15.70332,14.9531 -20.11176,18.44461 -38.33347,30.36028 -83.27013,48.11589 -131.98914,52.15223 -9.87667,0.81827 -30.40224,0.80428 -39.74867,-0.0271 l 0,1e-5 z m -39.94011,-230.58566 0,-106.7498 -30.60404,0 -30.60403,0 0,106.7498 0,106.74979 30.60403,0 30.60404,0 0,-106.74979 z m 91.08402,40.62322 5.7e-4,-66.12658 2.19046,-4.63024 c 2.74047,-5.79286 10.2639,-13.74354 15.48741,-16.36692 6.39967,-3.21408 12.23386,-4.33072 20.89068,-3.99841 9.18476,0.35258 13.77285,2.23625 17.08373,7.01386 4.60691,6.64777 4.4,3.08995 4.65833,80.10061 l 0.23527,70.13425 30.57023,0 30.57022,0 -0.007,-69.04125 c -0.009,-80.88842 -0.2432,-84.77128 -6.17514,-102.1743 -5.69744,-16.71503 -16.1044,-29.30555 -29.77049,-36.01684 -9.67567,-4.75163 -14.29687,-5.78298 -25.98384,-5.79901 -20.87525,-0.0286 -38.55521,5.45461 -57.38256,17.79654 l -2.36817,1.55241 0,-9.90857 0,-9.90857 -30.60404,0 -30.60404,0 0,106.7498 0,106.74979 30.60404,0 30.60404,0 5.7e-4,-66.12657 10e-6,0 z M 161.18038,134.36775 c 14.32445,-3.73104 23.51286,-17.97318 20.95693,-32.48347 -1.95035,-11.072292 -9.26647,-19.380632 -19.91395,-22.614706 -17.68426,-5.371424 -35.69585,7.00122 -36.87202,25.328366 -1.2782,19.91698 16.60609,34.77675 35.82904,29.76981 z"
   id="path3077"
   inkscape:connector-curvature="0" /></svg>