<?xml version="1.0" encoding="UTF-8" standalone="no"?>
<!-- Generator: Adobe Illustrator 18.0.0, SVG Export Plug-In . SVG Version: 6.00 Build 0)  -->

<svg
   xmlns:dc="http://purl.org/dc/elements/1.1/"
   xmlns:cc="http://creativecommons.org/ns#"
   xmlns:rdf="http://www.w3.org/1999/02/22-rdf-syntax-ns#"
   xmlns:svg="http://www.w3.org/2000/svg"
   xmlns="http://www.w3.org/2000/svg"
   xmlns:sodipodi="http://sodipodi.sourceforge.net/DTD/sodipodi-0.dtd"
   xmlns:inkscape="http://www.inkscape.org/namespaces/inkscape"
   version="1.1"
   id="Capa_1"
   x="0px"
   y="0px"
   viewBox="0 0 300 300"
   xml:space="preserve"
   inkscape:version="0.48.4 r9939"
   width="100%"
   height="100%"
   sodipodi:docname="Resume.svg"><metadata
   id="metadata51"><rdf:RDF><cc:Work
       rdf:about=""><dc:format>image/svg+xml</dc:format><dc:type
         rdf:resource="http://purl.org/dc/dcmitype/StillImage" /></cc:Work></rdf:RDF></metadata><defs
   id="defs49" /><sodipodi:namedview
   pagecolor="#ffffff"
   bordercolor="#666666"
   borderopacity="1"
   objecttolerance="10"
   gridtolerance="10"
   guidetolerance="10"
   inkscape:pageopacity="0"
   inkscape:pageshadow="2"
   inkscape:window-width="1920"
   inkscape:window-height="1137"
   id="namedview47"
   showgrid="false"
   inkscape:zoom="2.2446023"
   inkscape:cx="140.87209"
   inkscape:cy="160.89414"
   inkscape:window-x="1912"
   inkscape:window-y="-8"
   inkscape:window-maximized="1"
   inkscape:current-layer="Capa_1" />
<path
   sodipodi:type="arc"
   style="color:#000000;fill:#999999;stroke:none;stroke-width:1px;marker:none;visibility:visible;display:inline;overflow:visible;enable-background:accumulate"
   id="path3028"
   sodipodi:cx="148.692"
   sodipodi:cy="147.4319"
   sodipodi:rx="147.4319"
   sodipodi:ry="149.9521"
   d="m 296.12106,146.50019 a 147.4319,149.9521 0 1 1 -0.0152,-1.41744"
   sodipodi:start="6.2769719"
   sodipodi:end="12.550704"
   sodipodi:open="true"
   transform="matrix(1.0174185,0,0,1.000319,-1.2819884,2.5211317)" /><g
   id="g3"
   transform="matrix(0.71426266,0,0,0.71426266,43.794862,43.795277)"
   style="fill:#e6e6e6">
	<path
   d="m 265.53,78.112 c -0.014,-0.134 -0.037,-0.266 -0.06,-0.397 -0.008,-0.045 -0.013,-0.091 -0.02,-0.135 -0.031,-0.156 -0.072,-0.31 -0.116,-0.462 -0.006,-0.019 -0.009,-0.038 -0.015,-0.058 -0.047,-0.152 -0.102,-0.303 -0.162,-0.45 -0.007,-0.018 -0.012,-0.037 -0.02,-0.055 -0.058,-0.139 -0.124,-0.274 -0.193,-0.408 -0.013,-0.025 -0.023,-0.053 -0.037,-0.077 -0.064,-0.122 -0.139,-0.239 -0.212,-0.355 -0.022,-0.035 -0.042,-0.072 -0.065,-0.106 -0.07,-0.106 -0.149,-0.207 -0.228,-0.308 -0.032,-0.041 -0.06,-0.085 -0.093,-0.124 -0.096,-0.117 -0.199,-0.228 -0.305,-0.337 -0.02,-0.02 -0.035,-0.041 -0.055,-0.061 L 190.776,1.608 V 1.607 c -0.127,-0.127 -0.261,-0.247 -0.398,-0.36 -0.03,-0.025 -0.063,-0.047 -0.094,-0.07 -0.111,-0.087 -0.223,-0.173 -0.338,-0.25 -0.028,-0.02 -0.059,-0.035 -0.087,-0.053 -0.123,-0.079 -0.247,-0.156 -0.376,-0.225 -0.018,-0.01 -0.038,-0.018 -0.057,-0.027 -0.141,-0.073 -0.283,-0.143 -0.43,-0.203 -0.008,-0.004 -0.018,-0.006 -0.025,-0.01 -0.157,-0.065 -0.316,-0.122 -0.479,-0.172 -0.007,-0.002 -0.014,-0.002 -0.02,-0.004 -0.164,-0.05 -0.331,-0.092 -0.5,-0.126 -0.021,-0.005 -0.044,-0.006 -0.065,-0.011 -0.154,-0.028 -0.31,-0.054 -0.468,-0.069 -0.1,-0.01 -0.201,-0.011 -0.303,-0.015 C 187.057,0.009 186.977,0 186.895,0 186.893,0 186.892,0 186.89,0 H 37.315 c -3.031,0 -5.488,2.457 -5.488,5.488 v 286.408 c 0,3.03 2.457,5.487 5.488,5.487 h 222.754 c 3.031,0 5.488,-2.457 5.488,-5.487 V 78.66 l 0,0 v -10e-4 c 0,-0.007 -0.002,-0.015 -0.002,-0.021 0,-0.178 -0.009,-0.353 -0.025,-0.526 z m -18.708,-4.938 -54.435,0.006 -0.004,-54.442 54.439,54.436 z m 7.759,213.235 H 42.802 V 10.976 h 138.605 l 0.004,67.693 c 0,1.455 0.578,2.852 1.607,3.88 1.029,1.029 2.426,1.607 3.881,1.607 l 67.682,-0.008 v 202.261 z"
   id="path5"
   inkscape:connector-curvature="0"
   style="fill:#e6e6e6" />
	<path
   d="m 112.038,76.817 c 12.582,0 22.817,-10.238 22.817,-22.823 0,-12.585 -10.235,-22.823 -22.817,-22.823 -12.583,0 -22.82,10.238 -22.82,22.823 -0.001,12.585 10.237,22.823 22.82,22.823 z m 0,-34.671 c 6.529,0 11.842,5.315 11.842,11.849 0,6.532 -5.313,11.848 -11.842,11.848 -6.531,0 -11.844,-5.315 -11.844,-11.848 0,-6.534 5.312,-11.849 11.844,-11.849 z"
   id="path7"
   inkscape:connector-curvature="0"
   style="fill:#e6e6e6" />
	<path
   d="m 86.541,118.47 c 3.031,0 5.488,-2.457 5.488,-5.487 v -9.626 c 0,-6.222 5.064,-11.283 11.286,-11.283 h 17.582 c 6.226,0 11.291,5.062 11.291,11.283 v 9.626 c 0,3.03 2.456,5.487 5.487,5.487 3.031,0 5.488,-2.457 5.488,-5.487 v -9.626 c 0,-12.273 -9.988,-22.258 -22.267,-22.258 h -17.582 c -12.275,0 -22.262,9.984 -22.262,22.258 v 9.626 c 0.002,3.03 2.459,5.487 5.489,5.487 z"
   id="path9"
   inkscape:connector-curvature="0"
   style="fill:#e6e6e6" />
	<path
   d="m 81.054,157.2 c 0,3.03 2.457,5.487 5.487,5.487 h 124.305 c 3.031,0 5.488,-2.457 5.488,-5.487 0,-3.031 -2.457,-5.488 -5.488,-5.488 H 86.541 c -3.03,0 -5.487,2.457 -5.487,5.488 z"
   id="path11"
   inkscape:connector-curvature="0"
   style="fill:#e6e6e6" />
	<path
   d="M 210.846,232.915 H 86.541 c -3.03,0 -5.487,2.457 -5.487,5.488 0,3.031 2.457,5.488 5.487,5.488 h 124.305 c 3.031,0 5.488,-2.457 5.488,-5.488 0.001,-3.031 -2.457,-5.488 -5.488,-5.488 z"
   id="path13"
   inkscape:connector-curvature="0"
   style="fill:#e6e6e6" />
	<path
   d="M 210.846,192.313 H 86.541 c -3.03,0 -5.487,2.457 -5.487,5.488 0,3.031 2.457,5.488 5.487,5.488 h 124.305 c 3.031,0 5.488,-2.457 5.488,-5.488 0.001,-3.031 -2.457,-5.488 -5.488,-5.488 z"
   id="path15"
   inkscape:connector-curvature="0"
   style="fill:#e6e6e6" />
</g>
<g
   id="g17"
   transform="translate(0,2.616)">
</g>
<g
   id="g19"
   transform="translate(0,2.616)">
</g>
<g
   id="g21"
   transform="translate(0,2.616)">
</g>
<g
   id="g23"
   transform="translate(0,2.616)">
</g>
<g
   id="g25"
   transform="translate(0,2.616)">
</g>
<g
   id="g27"
   transform="translate(0,2.616)">
</g>
<g
   id="g29"
   transform="translate(0,2.616)">
</g>
<g
   id="g31"
   transform="translate(0,2.616)">
</g>
<g
   id="g33"
   transform="translate(0,2.616)">
</g>
<g
   id="g35"
   transform="translate(0,2.616)">
</g>
<g
   id="g37"
   transform="translate(0,2.616)">
</g>
<g
   id="g39"
   transform="translate(0,2.616)">
</g>
<g
   id="g41"
   transform="translate(0,2.616)">
</g>
<g
   id="g43"
   transform="translate(0,2.616)">
</g>
<g
   id="g45"
   transform="translate(0,2.616)">
</g>
</svg>